<svg width="24" height="24" viewBox="0 0 24 24" fill="none" xmlns="http://www.w3.org/2000/svg">
<mask id="mask0_318_38676" style="mask-type:alpha" maskUnits="userSpaceOnUse" x="0" y="0" width="24" height="24">
<rect width="24" height="24" fill="#D9D9D9"/>
</mask>
<g mask="url(#mask0_318_38676)">
<path d="M6.6155 21C6.15517 21 5.77083 20.8458 5.4625 20.5375C5.15417 20.2292 5 19.8448 5 19.3845V4.6155C5 4.15517 5.15417 3.77083 5.4625 3.4625C5.77083 3.15417 6.15517 3 6.6155 3H19V4H16.5V5.15375C16.5 5.37175 16.4263 5.5545 16.2788 5.702C16.1314 5.84933 15.9488 5.923 15.7308 5.923H9.26925C9.05125 5.923 8.86858 5.84933 8.72125 5.702C8.57375 5.5545 8.5 5.37175 8.5 5.15375V4H6.6155C6.436 4 6.2885 4.05767 6.173 4.173C6.05767 4.2885 6 4.436 6 4.6155V19.3845C6 19.564 6.05767 19.7115 6.173 19.827C6.2885 19.9423 6.436 20 6.6155 20H10.5115C9.91667 19.6397 9.43267 19.1746 9.0595 18.6048C8.6865 18.0349 8.5 17.3462 8.5 16.5385V12.5385H16.5V16.5385C16.5 17.3462 16.3135 18.0349 15.9405 18.6048C15.5673 19.1746 15.0833 19.6397 14.4885 20H19V21H6.6155ZM12.5 19.5385C13.3333 19.5385 14.0417 19.2468 14.625 18.6635C15.2083 18.0802 15.5 17.3718 15.5 16.5385V13.5385H9.5V16.5385C9.5 17.3718 9.79167 18.0802 10.375 18.6635C10.9583 19.2468 11.6667 19.5385 12.5 19.5385ZM12.5 10C12.7063 10 12.8862 9.92342 13.0395 9.77025C13.1927 9.61708 13.2693 9.43725 13.2693 9.23075C13.2693 9.02442 13.1927 8.84458 13.0395 8.69125C12.8862 8.53808 12.7063 8.4615 12.5 8.4615C12.2937 8.4615 12.1138 8.53808 11.9605 8.69125C11.8073 8.84458 11.7308 9.02442 11.7308 9.23075C11.7308 9.43725 11.8073 9.61708 11.9605 9.77025C12.1138 9.92342 12.2937 10 12.5 10Z" fill="#28303B"/>
</g>
</svg>
