<svg width="24" height="24" viewBox="0 0 24 24" fill="none" xmlns="http://www.w3.org/2000/svg">
<mask id="mask0_318_38703" style="mask-type:alpha" maskUnits="userSpaceOnUse" x="0" y="0" width="24" height="24">
<rect width="24" height="24" fill="#D9D9D9"/>
</mask>
<g mask="url(#mask0_318_38703)">
<path d="M2.5 5.5V1.5H6.5V2.5H3.5V5.5H2.5ZM20.5 5.5V2.5H17.5V1.5H21.5V5.5H20.5ZM2.5 22.5V18.5H3.5V21.5H6.5V22.5H2.5ZM17.5 22.5V21.5H20.5V18.5H21.5V22.5H17.5ZM6.5 17.8845C6.5 18.0385 6.56408 18.1796 6.69225 18.3078C6.82042 18.4359 6.9615 18.5 7.1155 18.5H16.8845C17.0385 18.5 17.1796 18.4359 17.3077 18.3078C17.4359 18.1796 17.5 18.0385 17.5 17.8845V6.1155C17.5 5.9615 17.4359 5.82042 17.3077 5.69225C17.1796 5.56408 17.0385 5.5 16.8845 5.5H7.1155C6.9615 5.5 6.82042 5.56408 6.69225 5.69225C6.56408 5.82042 6.5 5.9615 6.5 6.1155V17.8845ZM7.1155 19.5C6.65517 19.5 6.27083 19.3458 5.9625 19.0375C5.65417 18.7292 5.5 18.3448 5.5 17.8845V6.1155C5.5 5.65517 5.65417 5.27083 5.9625 4.9625C6.27083 4.65417 6.65517 4.5 7.1155 4.5H16.8845C17.3448 4.5 17.7292 4.65417 18.0375 4.9625C18.3458 5.27083 18.5 5.65517 18.5 6.1155V17.8845C18.5 18.3448 18.3458 18.7292 18.0375 19.0375C17.7292 19.3458 17.3448 19.5 16.8845 19.5H7.1155ZM9.5 9.5H14.5V8.5H9.5V9.5ZM9.5 12.5H14.5V11.5H9.5V12.5ZM9.5 15.5H14.5V14.5H9.5V15.5ZM6.5 17.8845V5.5V18.5V17.8845Z" fill="#28303B"/>
</g>
</svg>
