<svg width="24" height="24" viewBox="0 0 24 24" fill="none" xmlns="http://www.w3.org/2000/svg">
<mask id="mask0_318_38679" style="mask-type:alpha" maskUnits="userSpaceOnUse" x="0" y="0" width="24" height="24">
<rect width="24" height="24" fill="#D9D9D9"/>
</mask>
<g mask="url(#mask0_318_38679)">
<path d="M12 20C10.9008 20 9.86483 19.7913 8.892 19.374C7.91917 18.9567 7.06925 18.3846 6.34225 17.6578C5.61542 16.9307 5.04333 16.0808 4.626 15.108C4.20867 14.1352 4 13.0992 4 12C4 11.3563 4.0705 10.74 4.2115 10.151C4.3525 9.56183 4.54933 9.00475 4.802 8.47975C5.0545 7.95475 5.35992 7.46825 5.71825 7.02025C6.07658 6.57208 6.47308 6.16533 6.90775 5.8L13.0155 11.9078L12.3077 12.6155L6.90775 7.2155C6.38208 7.80267 5.93267 8.48625 5.5595 9.26625C5.1865 10.0464 5 10.9577 5 12C5 13.9333 5.68333 15.5833 7.05 16.95C8.41667 18.3167 10.0667 19 12 19C13.9333 19 15.5833 18.3167 16.95 16.95C18.3167 15.5833 19 13.9333 19 12C19 10.2552 18.4132 8.70483 17.2395 7.349C16.0657 5.99333 14.4858 5.218 12.5 5.023V7H11.5V4H12C13.0992 4 14.1352 4.20867 15.108 4.626C16.0808 5.04333 16.9307 5.61542 17.6578 6.34225C18.3846 7.06925 18.9567 7.91917 19.374 8.892C19.7913 9.86483 20 10.9008 20 12C20 13.0992 19.7913 14.1352 19.374 15.108C18.9567 16.0808 18.3846 16.9307 17.6578 17.6578C16.9307 18.3846 16.0808 18.9567 15.108 19.374C14.1352 19.7913 13.0992 20 12 20ZM6.99875 12.7692C6.78042 12.7692 6.59783 12.6954 6.451 12.5478C6.30417 12.4001 6.23075 12.2171 6.23075 11.9988C6.23075 11.7804 6.30458 11.5978 6.45225 11.451C6.59992 11.3042 6.78292 11.2308 7.00125 11.2308C7.21958 11.2308 7.40217 11.3046 7.549 11.4523C7.69583 11.5999 7.76925 11.7829 7.76925 12.0013C7.76925 12.2196 7.69542 12.4022 7.54775 12.549C7.40008 12.6958 7.21708 12.7692 6.99875 12.7692ZM11.9988 17.7693C11.7804 17.7693 11.5978 17.6954 11.451 17.5478C11.3042 17.4001 11.2308 17.2171 11.2308 16.9988C11.2308 16.7804 11.3046 16.5978 11.4523 16.451C11.5999 16.3042 11.7829 16.2308 12.0013 16.2308C12.2196 16.2308 12.4022 16.3046 12.549 16.4523C12.6958 16.5999 12.7692 16.7829 12.7692 17.0013C12.7692 17.2196 12.6954 17.4022 12.5478 17.549C12.4001 17.6958 12.2171 17.7693 11.9988 17.7693ZM16.9988 12.7692C16.7804 12.7692 16.5978 12.6954 16.451 12.5478C16.3042 12.4001 16.2308 12.2171 16.2308 11.9988C16.2308 11.7804 16.3046 11.5978 16.4523 11.451C16.5999 11.3042 16.7829 11.2308 17.0013 11.2308C17.2196 11.2308 17.4022 11.3046 17.549 11.4523C17.6958 11.5999 17.7693 11.7829 17.7693 12.0013C17.7693 12.2196 17.6954 12.4022 17.5477 12.549C17.4001 12.6958 17.2171 12.7692 16.9988 12.7692Z" fill="#28303B"/>
</g>
</svg>
