<svg width="24" height="24" viewBox="0 0 24 24" fill="none" xmlns="http://www.w3.org/2000/svg">
<mask id="mask0_318_38715" style="mask-type:alpha" maskUnits="userSpaceOnUse" x="0" y="0" width="24" height="24">
<rect width="24" height="24" fill="#D9D9D9"/>
</mask>
<g mask="url(#mask0_318_38715)">
<path d="M16 21C14.6153 21 13.4358 20.5128 12.4615 19.5385C11.4872 18.5642 11 17.3847 11 16C11 14.6153 11.4872 13.4358 12.4615 12.4615C13.4358 11.4872 14.6153 11 16 11C17.3847 11 18.5642 11.4872 19.5385 12.4615C20.5128 13.4358 21 14.6153 21 16C21 17.3847 20.5128 18.5642 19.5385 19.5385C18.5642 20.5128 17.3847 21 16 21ZM16 20C17.1 20 18.0417 19.6083 18.825 18.825C19.6083 18.0417 20 17.1 20 16C20 14.9 19.6083 13.9583 18.825 13.175C18.0417 12.3917 17.1 12 16 12C14.9 12 13.9583 12.3917 13.175 13.175C12.3917 13.9583 12 14.9 12 16C12 17.1 12.3917 18.0417 13.175 18.825C13.9583 19.6083 14.9 20 16 20ZM4.6155 19C4.15517 19 3.77083 18.8458 3.4625 18.5375C3.15417 18.2292 3 17.8448 3 17.3845V10.5155C3 10.3822 3.02533 10.2296 3.076 10.0578C3.12667 9.88592 3.177 9.73333 3.227 9.6L5.45775 4.6155H4.65375C4.43458 4.6155 4.26442 4.55492 4.14325 4.43375C4.02208 4.31258 3.9615 4.14233 3.9615 3.923V3.69225C3.9615 3.47308 4.02208 3.30292 4.14325 3.18175C4.26442 3.06058 4.43458 3 4.65375 3H10.3463C10.5654 3 10.7356 3.06058 10.8568 3.18175C10.9779 3.30292 11.0385 3.47308 11.0385 3.69225V3.923C11.0385 4.14233 10.9779 4.31258 10.8568 4.43375C10.7356 4.55492 10.5654 4.6155 10.3463 4.6155H9.54225L12.0385 10.2615C11.9013 10.3385 11.7647 10.4302 11.6287 10.5365C11.4929 10.643 11.3577 10.7616 11.223 10.8923L8.46925 4.6155H6.53075L4 10.3423V17.3845C4 17.564 4.05767 17.7115 4.173 17.827C4.2885 17.9423 4.436 18 4.6155 18H9.2885C9.33333 18.1833 9.39133 18.3593 9.4625 18.528C9.53367 18.6965 9.61158 18.8538 9.69625 19H4.6155ZM16 9.6155C15.5692 9.5 15.2115 9.26792 14.927 8.91925C14.6423 8.57058 14.5 8.16158 14.5 7.69225C14.5 7.22308 14.6423 6.81408 14.927 6.46525C15.2115 6.11658 15.5692 5.88458 16 5.76925V9.6155C16.1153 9.18467 16.3474 8.82692 16.6962 8.54225C17.0449 8.25758 17.4538 8.11525 17.923 8.11525C18.3923 8.11525 18.8013 8.25758 19.15 8.54225C19.4987 8.82692 19.7308 9.18467 19.8463 9.6155H16Z" fill="#28303B"/>
</g>
</svg>
