<svg width="24" height="24" viewBox="0 0 24 24" fill="none" xmlns="http://www.w3.org/2000/svg">
<mask id="mask0_532_44987" style="mask-type:alpha" maskUnits="userSpaceOnUse" x="0" y="0" width="24" height="24">
<rect width="24" height="23.04" fill="#D9D9D9"/>
</mask>
<g mask="url(#mask0_532_44987)">
<path d="M18.924 9.456C18.4488 9.456 18.042 9.2868 17.7036 8.9484C17.3652 8.61 17.196 8.2032 17.196 7.728C17.196 7.2528 17.3652 6.846 17.7036 6.5076C18.042 6.1692 18.4488 6 18.924 6C19.3992 6 19.806 6.1692 20.1444 6.5076C20.4828 6.846 20.652 7.2528 20.652 7.728C20.652 8.2032 20.4828 8.61 20.1444 8.9484C19.806 9.2868 19.3992 9.456 18.924 9.456ZM14.892 13.6211V12.6728C14.892 12.435 14.9613 12.2125 15.0997 12.0054C15.2382 11.7983 15.4245 11.6375 15.6586 11.523C16.2021 11.2623 16.746 11.0668 17.2902 10.9365C17.8344 10.8062 18.379 10.7411 18.924 10.7411C19.469 10.7411 20.0136 10.8062 20.5579 10.9365C21.1021 11.0668 21.646 11.2623 22.1895 11.523C22.4236 11.6375 22.6099 11.7983 22.7484 12.0054C22.8868 12.2125 22.956 12.435 22.956 12.6728V13.6211H14.892ZM15.468 13.0451H22.38V12.6728C22.38 12.545 22.3389 12.425 22.2565 12.3128C22.1742 12.2006 22.0603 12.1057 21.9148 12.0281C21.4407 11.7985 20.9519 11.6226 20.4484 11.5004C19.9449 11.3782 19.4368 11.3171 18.924 11.3171C18.4113 11.3171 17.9032 11.3782 17.3997 11.5004C16.8961 11.6226 16.4074 11.7985 15.9333 12.0281C15.7878 12.1057 15.6739 12.2006 15.5916 12.3128C15.5092 12.425 15.468 12.545 15.468 12.6728V13.0451ZM18.924 8.88C19.2408 8.88 19.512 8.7672 19.7376 8.5416C19.9632 8.316 20.076 8.0448 20.076 7.728C20.076 7.4112 19.9632 7.14 19.7376 6.9144C19.512 6.6888 19.2408 6.576 18.924 6.576C18.6072 6.576 18.336 6.6888 18.1104 6.9144C17.8848 7.14 17.772 7.4112 17.772 7.728C17.772 8.0448 17.8848 8.316 18.1104 8.5416C18.336 8.7672 18.6072 8.88 18.924 8.88Z" fill="#28303B"/>
<path d="M5.032 9.456C4.5568 9.456 4.15 9.2868 3.8116 8.9484C3.4732 8.61 3.304 8.2032 3.304 7.728C3.304 7.2528 3.4732 6.846 3.8116 6.5076C4.15 6.1692 4.5568 6 5.032 6C5.5072 6 5.914 6.1692 6.2524 6.5076C6.5908 6.846 6.76 7.2528 6.76 7.728C6.76 8.2032 6.5908 8.61 6.2524 8.9484C5.914 9.2868 5.5072 9.456 5.032 9.456ZM1 13.6211V12.6728C1 12.435 1.06922 12.2125 1.20765 12.0054C1.34618 11.7983 1.53246 11.6375 1.76651 11.523C2.31006 11.2623 2.85395 11.0668 3.39818 10.9365C3.9424 10.8062 4.48701 10.7411 5.032 10.7411C5.57699 10.7411 6.1216 10.8062 6.66582 10.9365C7.21005 11.0668 7.75394 11.2623 8.29749 11.523C8.53154 11.6375 8.71782 11.7983 8.85635 12.0054C8.99478 12.2125 9.064 12.435 9.064 12.6728V13.6211H1ZM1.576 13.0451H8.488V12.6728C8.488 12.545 8.44681 12.425 8.36445 12.3128C8.28217 12.2006 8.16827 12.1057 8.02274 12.0281C7.54869 11.7985 7.0599 11.6226 6.55638 11.5004C6.05286 11.3782 5.54474 11.3171 5.032 11.3171C4.51926 11.3171 4.01114 11.3782 3.50762 11.5004C3.0041 11.6226 2.51531 11.7985 2.04126 12.0281C1.89573 12.1057 1.78182 12.2006 1.69955 12.3128C1.61718 12.425 1.576 12.545 1.576 12.6728V13.0451ZM5.032 8.88C5.3488 8.88 5.62 8.7672 5.8456 8.5416C6.0712 8.316 6.184 8.0448 6.184 7.728C6.184 7.4112 6.0712 7.14 5.8456 6.9144C5.62 6.6888 5.3488 6.576 5.032 6.576C4.7152 6.576 4.444 6.6888 4.2184 6.9144C3.9928 7.14 3.88 7.4112 3.88 7.728C3.88 8.0448 3.9928 8.316 4.2184 8.5416C4.444 8.7672 4.7152 8.88 5.032 8.88Z" fill="#28303B"/>
<path d="M12.3004 11.6924C11.5876 11.6924 10.9774 11.4386 10.4698 10.931C9.9622 10.4234 9.7084 9.81322 9.7084 9.10042C9.7084 8.38762 9.9622 7.77742 10.4698 7.26982C10.9774 6.76222 11.5876 6.50842 12.3004 6.50842C13.0132 6.50842 13.6234 6.76222 14.131 7.26982C14.6386 7.77742 14.8924 8.38762 14.8924 9.10042C14.8924 9.81322 14.6386 10.4234 14.131 10.931C13.6234 11.4386 13.0132 11.6924 12.3004 11.6924ZM7.67476 17.94C6.88921 17.94 6.2524 17.3032 6.2524 16.5176C6.2524 16.161 6.35622 15.8272 6.56387 15.5165C6.77166 15.2059 7.0511 14.9647 7.40217 14.7929C8.2175 14.4019 9.03333 14.1087 9.84966 13.9131C10.666 13.7177 11.4829 13.62 12.3004 13.62C13.1179 13.62 13.9348 13.7177 14.7511 13.9131C15.5675 14.1087 16.3833 14.4019 17.1986 14.7929C17.5497 14.9647 17.8291 15.2059 18.0369 15.5165C18.2446 15.8272 18.3484 16.161 18.3484 16.5176C18.3484 17.3032 17.7116 17.94 16.926 17.94H7.67476ZM7.1164 17.076H17.4844V16.5176C17.4844 16.326 17.4226 16.146 17.2991 15.9776C17.1757 15.8093 17.0048 15.667 16.7865 15.5506C16.0754 15.2062 15.3423 14.9423 14.587 14.759C13.8317 14.5757 13.0695 14.484 12.3004 14.484C11.5313 14.484 10.7691 14.5757 10.0138 14.759C9.25855 14.9423 8.52537 15.2062 7.8143 15.5506C7.59599 15.667 7.42514 15.8093 7.30173 15.9776C7.17818 16.146 7.1164 16.326 7.1164 16.5176V17.076ZM12.3004 10.8284C12.7756 10.8284 13.1824 10.6592 13.5208 10.3208C13.8592 9.98242 14.0284 9.57562 14.0284 9.10042C14.0284 8.62522 13.8592 8.21842 13.5208 7.88002C13.1824 7.54162 12.7756 7.37242 12.3004 7.37242C11.8252 7.37242 11.4184 7.54162 11.08 7.88002C10.7416 8.21842 10.5724 8.62522 10.5724 9.10042C10.5724 9.57562 10.7416 9.98242 11.08 10.3208C11.4184 10.6592 11.8252 10.8284 12.3004 10.8284Z" fill="#28303B"/>
</g>
</svg>
