<svg width="24" height="24" viewBox="0 0 24 24" fill="none" xmlns="http://www.w3.org/2000/svg">
<mask id="mask0_51_81215" style="mask-type:alpha" maskUnits="userSpaceOnUse" x="0" y="0" width="24" height="24">
<rect width="24" height="24" fill="#D9D9D9"/>
</mask>
<g mask="url(#mask0_51_81215)">
<path d="M12.6924 11.3348C13.0604 10.9426 13.319 10.4882 13.4684 9.97152C13.6177 9.45485 13.6924 8.92593 13.6924 8.38477C13.6924 7.84377 13.6177 7.31493 13.4684 6.79827C13.319 6.2816 13.0604 5.8271 12.6924 5.43477C13.4489 5.5041 14.0739 5.82077 14.5674 6.38477C15.061 6.94893 15.3079 7.6156 15.3079 8.38477C15.3079 9.1541 15.061 9.82077 14.5674 10.3848C14.0739 10.9489 13.4489 11.2656 12.6924 11.3348ZM17.6924 18.6158V16.9233C17.6924 16.4329 17.604 15.9664 17.4271 15.5238C17.2501 15.0811 16.9706 14.7156 16.5886 14.4273C17.272 14.6374 17.896 14.9383 18.4606 15.33C19.0255 15.7217 19.3079 16.2528 19.3079 16.9233V18.6158H17.6924ZM19.3079 12.5003V10.5003H17.3079V9.50027H19.3079V7.50027H20.3079V9.50027H22.3079V10.5003H20.3079V12.5003H19.3079ZM8.69238 11.3848C7.86738 11.3848 7.16113 11.091 6.57363 10.5035C5.98613 9.91602 5.69238 9.20977 5.69238 8.38477C5.69238 7.55977 5.98613 6.85352 6.57363 6.26602C7.16113 5.67852 7.86738 5.38477 8.69238 5.38477C9.51738 5.38477 10.2236 5.67852 10.8111 6.26602C11.3986 6.85352 11.6924 7.55977 11.6924 8.38477C11.6924 9.20977 11.3986 9.91602 10.8111 10.5035C10.2236 11.091 9.51738 11.3848 8.69238 11.3848ZM1.69238 18.6158V16.9695C1.69238 16.5567 1.81255 16.1704 2.05288 15.8108C2.29338 15.4513 2.6168 15.1721 3.02313 14.9733C3.9668 14.5208 4.91105 14.1813 5.85588 13.955C6.80072 13.7288 7.74622 13.6158 8.69238 13.6158C9.63855 13.6158 10.584 13.7288 11.5289 13.955C12.4739 14.1813 13.4181 14.5208 14.3616 14.9733C14.7681 15.1721 15.0915 15.4513 15.3319 15.8108C15.5722 16.1704 15.6924 16.5567 15.6924 16.9695V18.6158H1.69238ZM8.69238 10.3848C9.24238 10.3848 9.71322 10.1889 10.1049 9.79727C10.4965 9.4056 10.6924 8.93477 10.6924 8.38477C10.6924 7.83477 10.4965 7.36393 10.1049 6.97227C9.71322 6.5806 9.24238 6.38477 8.69238 6.38477C8.14238 6.38477 7.67155 6.5806 7.27988 6.97227C6.88822 7.36393 6.69238 7.83477 6.69238 8.38477C6.69238 8.93477 6.88822 9.4056 7.27988 9.79727C7.67155 10.1889 8.14238 10.3848 8.69238 10.3848ZM2.69238 17.6158H14.6924V16.9695C14.6924 16.7477 14.621 16.5393 14.4781 16.3445C14.3351 16.1497 14.1373 15.9849 13.8846 15.8503C13.0616 15.4516 12.213 15.1462 11.3389 14.934C10.4647 14.7218 9.58255 14.6158 8.69238 14.6158C7.80238 14.6158 6.9203 14.7218 6.04613 14.934C5.1718 15.1462 4.32313 15.4516 3.50013 15.8503C3.24763 15.9849 3.04988 16.1497 2.90688 16.3445C2.76388 16.5393 2.69238 16.7477 2.69238 16.9695V17.6158Z" fill="#28303B"/>
</g>
</svg>
