<svg width="24" height="24" viewBox="0 0 24 24" fill="none" xmlns="http://www.w3.org/2000/svg">
<mask id="mask0_51_81218" style="mask-type:alpha" maskUnits="userSpaceOnUse" x="0" y="0" width="24" height="24">
<rect width="24" height="24" fill="#D9D9D9"/>
</mask>
<g mask="url(#mask0_51_81218)">
<path d="M10 11.3848C9.175 11.3848 8.46875 11.091 7.88125 10.5035C7.29375 9.91602 7 9.20977 7 8.38477C7 7.55977 7.29375 6.85352 7.88125 6.26602C8.46875 5.67852 9.175 5.38477 10 5.38477C10.825 5.38477 11.5313 5.67852 12.1188 6.26602C12.7063 6.85352 13 7.55977 13 8.38477C13 9.20977 12.7063 9.91602 12.1188 10.5035C11.5313 11.091 10.825 11.3848 10 11.3848ZM3 18.6158V16.9695C3 16.5092 3.116 16.1111 3.348 15.7753C3.58017 15.4394 3.90775 15.1721 4.33075 14.9733C5.14225 14.5784 5.97883 14.2534 6.8405 13.9983C7.702 13.7433 8.75517 13.6158 10 13.6158H10.2345C10.2962 13.6158 10.3706 13.6196 10.4577 13.6273C10.3884 13.7989 10.3336 13.9672 10.2933 14.132C10.2529 14.2967 10.2142 14.4579 10.177 14.6158H10C8.88083 14.6158 7.90483 14.7304 7.072 14.9598C6.23933 15.1893 5.48458 15.4861 4.80775 15.8503C4.50392 16.0106 4.29333 16.1785 4.176 16.354C4.05867 16.5297 4 16.7348 4 16.9695V17.6158H10.3C10.3487 17.7734 10.4082 17.9429 10.4787 18.1243C10.5492 18.3058 10.6268 18.4696 10.7115 18.6158H3ZM16.2115 19.0965L16.0655 17.9425C15.7885 17.8848 15.5273 17.7878 15.2818 17.6513C15.0363 17.5148 14.8154 17.3413 14.6193 17.131L13.5345 17.5618L13.1115 16.8425L14.0307 16.1503C13.9206 15.8656 13.8655 15.572 13.8655 15.2695C13.8655 14.967 13.9206 14.6734 14.0307 14.3888L13.1307 13.658L13.5538 12.9388L14.6193 13.3888C14.8026 13.1784 15.0202 13.0083 15.272 12.8783C15.524 12.7481 15.7885 12.6542 16.0655 12.5965L16.2115 11.4425H17.0577L17.1845 12.5965C17.4615 12.6542 17.726 12.749 17.978 12.881C18.2298 13.013 18.4474 13.1861 18.6307 13.4003L19.6962 12.9388L20.1193 13.6695L19.2193 14.4003C19.3294 14.6813 19.3845 14.9739 19.3845 15.2783C19.3845 15.5826 19.3294 15.8733 19.2193 16.1503L20.1385 16.8425L19.7155 17.5618L18.6307 17.131C18.4346 17.3413 18.2137 17.5148 17.9682 17.6513C17.7227 17.7878 17.4615 17.8848 17.1845 17.9425L17.0577 19.0965H16.2115ZM16.617 17.0773C17.1147 17.0773 17.5401 16.9001 17.8932 16.5458C18.2464 16.1914 18.423 15.7654 18.423 15.2678C18.423 14.7703 18.2458 14.3448 17.8915 13.9915C17.5372 13.6383 17.1112 13.4618 16.6137 13.4618C16.1161 13.4618 15.6907 13.6389 15.3375 13.9933C14.9843 14.3476 14.8077 14.7736 14.8077 15.2713C14.8077 15.7688 14.9849 16.1941 15.3393 16.5473C15.6936 16.9006 16.1195 17.0773 16.617 17.0773ZM10 10.3848C10.55 10.3848 11.0208 10.1889 11.4125 9.79727C11.8042 9.4056 12 8.93477 12 8.38477C12 7.83477 11.8042 7.36393 11.4125 6.97227C11.0208 6.5806 10.55 6.38477 10 6.38477C9.45 6.38477 8.97917 6.5806 8.5875 6.97227C8.19583 7.36393 8 7.83477 8 8.38477C8 8.93477 8.19583 9.4056 8.5875 9.79727C8.97917 10.1889 9.45 10.3848 10 10.3848Z" fill="#28303B"/>
</g>
</svg>
