<svg width="24" height="24" viewBox="0 0 24 24" fill="none" xmlns="http://www.w3.org/2000/svg">
<mask id="mask0_253_162052" style="mask-type:alpha" maskUnits="userSpaceOnUse" x="0" y="0" width="24" height="24">
<rect width="24" height="24" fill="#D9D9D9"/>
</mask>
<g mask="url(#mask0_253_162052)">
<path d="M4 16.6155C3.71917 16.5128 3.48233 16.3362 3.2895 16.0855C3.0965 15.8348 3 15.5499 3 15.2308V7.573C3 7.4 3.04517 7.24075 3.1355 7.09525C3.226 6.94975 3.35775 6.8295 3.53075 6.7345L11 3L18.3193 6.7345C18.4679 6.79617 18.5843 6.90325 18.6683 7.05575C18.7522 7.20825 18.8128 7.36917 18.85 7.5385H17.7135L11 4.1345L4 7.6095V16.6155ZM7.3845 20C6.92433 20 6.54008 19.8458 6.23175 19.5375C5.92342 19.2292 5.76925 18.8448 5.76925 18.3845V10.923C5.76925 10.4628 5.92342 10.0786 6.23175 9.77025C6.54008 9.46192 6.92433 9.30775 7.3845 9.30775H19.3845C19.8448 9.30775 20.2292 9.46192 20.5375 9.77025C20.8458 10.0786 21 10.4628 21 10.923V18.3845C21 18.8448 20.8458 19.2292 20.5375 19.5375C20.2292 19.8458 19.8448 20 19.3845 20H7.3845ZM13.3845 14.7345L6.76925 11.3845V18.3845C6.76925 18.564 6.82692 18.7115 6.94225 18.827C7.05775 18.9423 7.20517 19 7.3845 19H19.3845C19.564 19 19.7115 18.9423 19.827 18.827C19.9423 18.7115 20 18.564 20 18.3845V11.3845L13.3845 14.7345ZM13.3845 13.6578L19.7693 10.423C19.7051 10.3847 19.6442 10.3558 19.5865 10.3365C19.5288 10.3173 19.4615 10.3078 19.3845 10.3078H7.3845C7.3205 10.3078 7.25642 10.3173 7.19225 10.3365C7.12825 10.3558 7.06417 10.3847 7 10.423L13.3845 13.6578Z" fill="#28303B"/>
</g>
</svg>
