<svg width="24" height="24" viewBox="0 0 24 24" fill="none" xmlns="http://www.w3.org/2000/svg">
<mask id="mask0_318_38709" style="mask-type:alpha" maskUnits="userSpaceOnUse" x="0" y="0" width="24" height="24">
<rect width="24" height="24" fill="#D9D9D9"/>
</mask>
<g mask="url(#mask0_318_38709)">
<path d="M5.84635 19.3847L4.1731 9.38448H19.8271L18.1538 19.3847H5.84635ZM6.6751 18.3845H17.3251L18.6001 10.3845H5.4001L6.6751 18.3845ZM10.0001 13.8845H14.0001C14.1418 13.8845 14.2605 13.8366 14.3563 13.7407C14.4522 13.6447 14.5001 13.5258 14.5001 13.384C14.5001 13.2422 14.4522 13.1235 14.3563 13.028C14.2605 12.9323 14.1418 12.8845 14.0001 12.8845H10.0001C9.85843 12.8845 9.73968 12.9325 9.64385 13.0285C9.54801 13.1245 9.5001 13.2434 9.5001 13.3852C9.5001 13.5271 9.54801 13.6457 9.64385 13.7412C9.73968 13.8367 9.85843 13.8845 10.0001 13.8845ZM6.0001 7.99998C5.85843 7.99998 5.73968 7.95198 5.64385 7.85598C5.54801 7.75998 5.5001 7.64107 5.5001 7.49923C5.5001 7.3574 5.54801 7.23873 5.64385 7.14323C5.73968 7.04773 5.85843 6.99998 6.0001 6.99998H18.0001C18.1418 6.99998 18.2605 7.04799 18.3563 7.14399C18.4522 7.23998 18.5001 7.3589 18.5001 7.50074C18.5001 7.64257 18.4522 7.76124 18.3563 7.85674C18.2605 7.95224 18.1418 7.99998 18.0001 7.99998H6.0001ZM8.0001 5.61548C7.85843 5.61548 7.73968 5.56748 7.64385 5.47148C7.54801 5.37548 7.5001 5.25657 7.5001 5.11474C7.5001 4.9729 7.54801 4.85423 7.64385 4.75873C7.73968 4.66307 7.85843 4.61523 8.0001 4.61523H16.0001C16.1418 4.61523 16.2605 4.66323 16.3563 4.75923C16.4522 4.85523 16.5001 4.97415 16.5001 5.11599C16.5001 5.25782 16.4522 5.37648 16.3563 5.47198C16.2605 5.56765 16.1418 5.61548 16.0001 5.61548H8.0001Z" fill="#28303B"/>
</g>
</svg>
