<svg width="24" height="24" viewBox="0 0 24 24" fill="none" xmlns="http://www.w3.org/2000/svg">
<mask id="mask0_318_38694" style="mask-type:alpha" maskUnits="userSpaceOnUse" x="0" y="0" width="24" height="24">
<rect width="24" height="24" fill="#D9D9D9"/>
</mask>
<g mask="url(#mask0_318_38694)">
<path d="M4 20V7C4 6.175 4.29375 5.46875 4.88125 4.88125C5.46875 4.29375 6.175 4 7 4H14C14.825 4 15.5313 4.29375 16.1188 4.88125C16.7063 5.46875 17 6.175 17 7V8H16V7C16 6.45 15.8042 5.97917 15.4125 5.5875C15.0208 5.19583 14.55 5 14 5H7C6.45 5 5.97917 5.19583 5.5875 5.5875C5.19583 5.97917 5 6.45 5 7V19H16V17H17V20H4ZM10.5 15C11.325 15 12.0313 14.7063 12.6188 14.1188C13.2063 13.5313 13.5 12.825 13.5 12C13.5 11.175 13.2063 10.4688 12.6188 9.88125C12.0313 9.29375 11.325 9 10.5 9C9.675 9 8.96875 9.29375 8.38125 9.88125C7.79375 10.4688 7.5 11.175 7.5 12C7.5 12.825 7.79375 13.5313 8.38125 14.1188C8.96875 14.7063 9.675 15 10.5 15ZM10.5 14C9.95 14 9.47917 13.8042 9.0875 13.4125C8.69583 13.0208 8.5 12.55 8.5 12C8.5 11.45 8.69583 10.9792 9.0875 10.5875C9.47917 10.1958 9.95 10 10.5 10C11.05 10 11.5208 10.1958 11.9125 10.5875C12.3042 10.9792 12.5 11.45 12.5 12C12.5 12.55 12.3042 13.0208 11.9125 13.4125C11.5208 13.8042 11.05 14 10.5 14ZM16.5 11.5V10.5H16.9C17.1553 10.5 17.3823 10.4433 17.581 10.3298C17.7795 10.2162 17.9397 10.0332 18.0615 9.78075C18.2602 9.37442 18.5404 9.05933 18.9023 8.8355C19.2639 8.61183 19.6632 8.5 20.1 8.5H20.5V9.5H20.1C19.8447 9.5 19.6177 9.55675 19.419 9.67025C19.2205 9.78375 19.0603 9.96675 18.9385 10.2193C18.7398 10.6256 18.4596 10.9407 18.0977 11.1645C17.7361 11.3882 17.3368 11.5 16.9 11.5H16.5ZM16.5 15.5V14.5H16.9C17.1553 14.5 17.3823 14.4432 17.581 14.3298C17.7795 14.2163 17.9397 14.0332 18.0615 13.7808C18.2602 13.3999 18.5404 13.0913 18.9023 12.8548C19.2639 12.6183 19.6632 12.5 20.1 12.5H20.5V13.5H20.1C19.8447 13.5 19.6177 13.5568 19.419 13.6702C19.2205 13.7837 19.0603 13.9668 18.9385 14.2192C18.7398 14.6256 18.4596 14.9407 18.0977 15.1645C17.7361 15.3882 17.3368 15.5 16.9 15.5H16.5Z" fill="#28303B"/>
</g>
</svg>
