<svg width="24" height="24" viewBox="0 0 24 24" fill="none" xmlns="http://www.w3.org/2000/svg">
<mask id="mask0_51_81245" style="mask-type:alpha" maskUnits="userSpaceOnUse" x="0" y="0" width="24" height="24">
<rect width="24" height="24" fill="#D9D9D9"/>
</mask>
<g mask="url(#mask0_51_81245)">
<path d="M13.5001 12.4227C12.936 12.4227 12.4616 12.2305 12.0771 11.846C11.6925 11.4613 11.5001 10.9869 11.5001 10.4227C11.5001 9.85872 11.6925 9.38439 12.0771 8.99972C12.4616 8.61505 12.936 8.42272 13.5001 8.42272C14.0643 8.42272 14.5386 8.61505 14.9231 8.99972C15.3078 9.38439 15.5001 9.85872 15.5001 10.4227C15.5001 10.9869 15.3078 11.4613 14.9231 11.846C14.5386 12.2305 14.0643 12.4227 13.5001 12.4227ZM7.30788 15.6152C6.86355 15.6152 6.48322 15.457 6.16688 15.1405C5.85055 14.8241 5.69238 14.4439 5.69238 13.9997V6.84597C5.69238 6.40164 5.85055 6.0213 6.16688 5.70497C6.48322 5.38864 6.86355 5.23047 7.30788 5.23047H19.6924C20.1367 5.23047 20.517 5.38864 20.8334 5.70497C21.1497 6.0213 21.3079 6.40164 21.3079 6.84597V13.9997C21.3079 14.4439 21.1497 14.8241 20.8334 15.1405C20.517 15.457 20.1367 15.6152 19.6924 15.6152H7.30788ZM8.30788 14.6152H18.6924C18.6924 14.1677 18.8505 13.7866 19.1669 13.4717C19.4832 13.1571 19.8635 12.9997 20.3079 12.9997V7.84597C19.8604 7.84597 19.4793 7.6878 19.1646 7.37147C18.8498 7.05497 18.6924 6.67464 18.6924 6.23047H8.30788C8.30788 6.67797 8.14972 7.05905 7.83338 7.37372C7.51705 7.68855 7.13672 7.84597 6.69238 7.84597V12.9997C7.13988 12.9997 7.52097 13.1579 7.83563 13.4742C8.15047 13.7906 8.30788 14.1709 8.30788 14.6152ZM18.3464 18.6152H4.30788C3.86355 18.6152 3.48322 18.457 3.16688 18.1405C2.85055 17.8241 2.69238 17.4439 2.69238 16.9997V8.19197H3.69238V16.9997C3.69238 17.1536 3.75647 17.2946 3.88463 17.4227C4.01297 17.5511 4.15405 17.6152 4.30788 17.6152H18.3464V18.6152ZM7.30788 14.6152H6.69238V6.23047H7.30788C7.14122 6.23047 6.99697 6.29139 6.87513 6.41322C6.7533 6.53505 6.69238 6.6793 6.69238 6.84597V13.9997C6.69238 14.1664 6.7533 14.3106 6.87513 14.4325C6.99697 14.5543 7.14122 14.6152 7.30788 14.6152Z" fill="#28303B"/>
</g>
</svg>
