<svg width="24" height="24" viewBox="0 0 24 24" fill="none" xmlns="http://www.w3.org/2000/svg">
<mask id="mask0_51_81212" style="mask-type:alpha" maskUnits="userSpaceOnUse" x="0" y="0" width="24" height="24">
<rect width="24" height="24" fill="#D9D9D9"/>
</mask>
<g mask="url(#mask0_51_81212)">
<path d="M2 20V4H14.077V20H9.69225V16.077H6.3845V20H2ZM3 19H5.3845V15.077H10.6923V19H13.077V5H3V19ZM5.3845 12.6923H6.84625V11.2308H5.3845V12.6923ZM5.3845 8.84625H6.84625V7.3845H5.3845V8.84625ZM9.23075 12.6923H10.6923V11.2308H9.23075V12.6923ZM9.23075 8.84625H10.6923V7.3845H9.23075V8.84625ZM19.2307 14.7885L18.523 14.1L20.1173 12.5H16.2308V11.5H20.1173L18.523 9.9L19.2307 9.2115L22.0193 12L19.2307 14.7885Z" fill="#28303B"/>
</g>
</svg>
