<svg width="24" height="24" viewBox="0 0 24 24" fill="none" xmlns="http://www.w3.org/2000/svg">
<mask id="mask0_346_137188" style="mask-type:alpha" maskUnits="userSpaceOnUse" x="0" y="0" width="24" height="24">
<rect width="24" height="24" fill="#D9D9D9"/>
</mask>
<g mask="url(#mask0_346_137188)">
<path d="M5.02119 19.9214C4.73519 19.9791 4.49186 19.9077 4.29119 19.7072C4.09069 19.5065 4.01927 19.2632 4.07694 18.9772L4.74994 15.7214L8.27694 19.2484L5.02119 19.9214ZM8.27694 19.2484L4.74994 15.7214L15.7384 4.73294C16.0448 4.4266 16.4236 4.27344 16.8749 4.27344C17.3263 4.27344 17.7051 4.4266 18.0114 4.73294L19.2654 5.98694C19.5718 6.29327 19.7249 6.6721 19.7249 7.12344C19.7249 7.57477 19.5718 7.9536 19.2654 8.25994L8.27694 19.2484ZM16.4519 5.44069L6.35194 15.5214L8.47694 17.6464L18.5577 7.54644C18.673 7.4311 18.7307 7.28694 18.7307 7.11394C18.7307 6.94077 18.673 6.79652 18.5577 6.68119L17.3172 5.44069C17.2019 5.32535 17.0576 5.26769 16.8844 5.26769C16.7114 5.26769 16.5673 5.32535 16.4519 5.44069Z" fill="#28303B"/>
</g>
</svg>
