<svg width="24" height="24" viewBox="0 0 24 24" fill="none" xmlns="http://www.w3.org/2000/svg">
<mask id="mask0_51_81074" style="mask-type:alpha" maskUnits="userSpaceOnUse" x="0" y="0" width="24" height="24">
<rect width="24" height="24" fill="#D9D9D9"/>
</mask>
<g mask="url(#mask0_51_81074)">
<rect x="14.75" y="12.75" width="3" height="5.5" rx="0.25" stroke="#0F0F0F" stroke-width="0.5"/>
<rect x="6.75" y="17.25" width="4" height="5" rx="0.25" transform="rotate(-90 6.75 17.25)" stroke="#0F0F0F" stroke-width="0.5"/>
<circle cx="15.75" cy="15.75" r="0.25" fill="#0F0F0F"/>
<path d="M7.86133 15.293L9.36133 14.293" stroke="#0F0F0F" stroke-width="0.5" stroke-linecap="round"/>
<path d="M9 16L10.5 15" stroke="#0F0F0F" stroke-width="0.5" stroke-linecap="round"/>
<path d="M20.5055 10.8962V18.8845C20.5055 19.3448 20.3513 19.7292 20.043 20.0375C19.7347 20.3458 19.3504 20.5 18.8903 20.5H5.12101C4.66067 20.5 4.27634 20.3458 3.96801 20.0375C3.65967 19.7292 3.50551 19.3448 3.50551 18.8845V10.8577C3.08367 10.5462 2.77501 10.1379 2.57951 9.63275C2.38401 9.12758 2.37984 8.5885 2.56701 8.0155L3.54026 4.80775C3.67359 4.40008 3.88859 4.08017 4.18526 3.848C4.48209 3.616 4.84909 3.5 5.28626 3.5H18.6863C19.1234 3.5 19.4894 3.60867 19.7843 3.826C20.0793 4.04333 20.2953 4.35775 20.4325 4.76925L21.444 8.0155C21.6312 8.5885 21.627 9.13208 21.4315 9.64625C21.236 10.1602 20.9273 10.5769 20.5055 10.8962ZM14.2055 10.5C14.8478 10.5 15.3273 10.3202 15.644 9.9605C15.9607 9.601 16.094 9.22958 16.044 8.84625L15.3785 4.5H12.5055V8.7C12.5055 9.191 12.6734 9.61375 13.0093 9.96825C13.3453 10.3227 13.744 10.5 14.2055 10.5ZM9.70551 10.5C10.2427 10.5 10.677 10.3227 11.0085 9.96825C11.3398 9.61375 11.5055 9.191 11.5055 8.7V4.5H8.63251L7.96701 8.923C7.92601 9.23333 8.06159 9.57375 8.37376 9.94425C8.68592 10.3148 9.12984 10.5 9.70551 10.5ZM5.25551 10.5C5.69651 10.5 6.07117 10.35 6.37951 10.05C6.68784 9.75 6.87984 9.37567 6.95551 8.927L7.58251 4.5H5.28626C5.06826 4.5 4.89517 4.54808 4.76701 4.64425C4.63884 4.74042 4.54267 4.88467 4.47851 5.077L3.55551 8.2345C3.39134 8.76017 3.46151 9.26917 3.76601 9.7615C4.07051 10.2538 4.56701 10.5 5.25551 10.5ZM18.7555 10.5C19.3542 10.5 19.8324 10.2667 20.1903 9.8C20.5479 9.33333 20.6363 8.8115 20.4555 8.2345L19.4825 5.0385C19.4183 4.84617 19.3222 4.70833 19.194 4.625C19.0658 4.54167 18.8928 4.5 18.6748 4.5H16.4285L17.0555 8.927C17.1312 9.37567 17.3232 9.75 17.6315 10.05C17.9398 10.35 18.3145 10.5 18.7555 10.5ZM5.12101 19.5H18.8903C19.0696 19.5 19.217 19.4423 19.3325 19.327C19.4478 19.2115 19.5055 19.064 19.5055 18.8845V11.373C19.3708 11.4192 19.2429 11.4519 19.1218 11.4713C19.0008 11.4904 18.8787 11.5 18.7555 11.5C18.3055 11.5 17.9097 11.4122 17.568 11.2365C17.2263 11.0608 16.9017 10.7807 16.594 10.3962C16.3325 10.7217 16.0101 10.9871 15.6268 11.1923C15.2434 11.3974 14.7773 11.5 14.2285 11.5C13.8298 11.5 13.4507 11.4071 13.091 11.2213C12.7315 11.0353 12.3697 10.7602 12.0055 10.3962C11.6708 10.7602 11.3 11.0353 10.893 11.2213C10.486 11.4071 10.0978 11.5 9.72851 11.5C9.30934 11.5 8.90076 11.4198 8.50276 11.2595C8.10459 11.0993 7.75551 10.8116 7.45551 10.3962C6.96451 10.8872 6.53534 11.1939 6.16801 11.3162C5.80067 11.4387 5.49651 11.5 5.25551 11.5C5.13251 11.5 5.00851 11.4904 4.88351 11.4713C4.75851 11.4519 4.63251 11.4192 4.50551 11.373V18.8845C4.50551 19.064 4.56317 19.2115 4.67851 19.327C4.79401 19.4423 4.94151 19.5 5.12101 19.5Z" fill="#28303B"/>
</g>
</svg>
