<svg width="20" height="14" viewBox="0 0 20 14" fill="none" xmlns="http://www.w3.org/2000/svg">
<path d="M0.595703 13.6158V11.9695C0.595703 11.5053 0.71587 11.1063 0.956203 10.7723C1.19654 10.4384 1.51954 10.1716 1.9252 9.97177C2.7927 9.55877 3.65395 9.22952 4.50895 8.98402C5.36412 8.73852 6.39304 8.61577 7.5957 8.61577C8.7982 8.61577 9.82704 8.73852 10.6822 8.98402C11.5374 9.22952 12.3986 9.55877 13.266 9.97177C13.6716 10.1716 13.9946 10.4384 14.235 10.7723C14.4755 11.1063 14.5957 11.5053 14.5957 11.9695V13.6158H0.595703ZM16.5957 13.6158V11.9233C16.5957 11.3438 16.4784 10.7968 16.2437 10.2823C16.0092 9.76777 15.6765 9.32635 15.2457 8.95802C15.7367 9.05802 16.2098 9.19677 16.665 9.37427C17.12 9.55193 17.57 9.7516 18.015 9.97327C18.4483 10.1913 18.788 10.4702 19.0342 10.81C19.2802 11.15 19.4032 11.5211 19.4032 11.9233V13.6158H16.5957ZM7.5957 6.38477C6.7707 6.38477 6.06445 6.09102 5.47695 5.50352C4.88945 4.91602 4.5957 4.20977 4.5957 3.38477C4.5957 2.55977 4.88945 1.85352 5.47695 1.26602C6.06445 0.678516 6.7707 0.384766 7.5957 0.384766C8.4207 0.384766 9.12695 0.678516 9.71445 1.26602C10.302 1.85352 10.5957 2.55977 10.5957 3.38477C10.5957 4.20977 10.302 4.91602 9.71445 5.50352C9.12695 6.09102 8.4207 6.38477 7.5957 6.38477ZM14.865 3.38477C14.865 4.20977 14.5712 4.91602 13.9837 5.50352C13.3962 6.09102 12.69 6.38477 11.865 6.38477C11.8226 6.38477 11.7687 6.38002 11.7032 6.37052C11.6379 6.36085 11.584 6.35027 11.5417 6.33877C11.8805 5.92377 12.1409 5.46343 12.3227 4.95777C12.5047 4.4521 12.5957 3.92702 12.5957 3.38251C12.5957 2.83801 12.5005 2.31768 12.31 1.82151C12.1196 1.32535 11.8635 0.861848 11.5417 0.431015C11.5955 0.411848 11.6494 0.399348 11.7032 0.393515C11.757 0.387682 11.811 0.384766 11.865 0.384766C12.69 0.384766 13.3962 0.678516 13.9837 1.26602C14.5712 1.85352 14.865 2.55977 14.865 3.38477ZM1.5957 12.6158H13.5957V11.9695C13.5957 11.7348 13.537 11.5297 13.4197 11.354C13.3024 11.1785 13.0918 11.0106 12.788 10.8503C12.0418 10.4516 11.2552 10.1462 10.4282 9.93402C9.60137 9.72185 8.6572 9.61577 7.5957 9.61577C6.53404 9.61577 5.58979 9.72185 4.76295 9.93402C3.93595 10.1462 3.14937 10.4516 2.4032 10.8503C2.09937 11.0106 1.88879 11.1785 1.77145 11.354C1.65429 11.5297 1.5957 11.7348 1.5957 11.9695V12.6158ZM7.5957 5.38477C8.1457 5.38477 8.61654 5.18893 9.0082 4.79727C9.39987 4.4056 9.5957 3.93477 9.5957 3.38477C9.5957 2.83477 9.39987 2.36393 9.0082 1.97227C8.61654 1.5806 8.1457 1.38477 7.5957 1.38477C7.0457 1.38477 6.57487 1.5806 6.1832 1.97227C5.79154 2.36393 5.5957 2.83477 5.5957 3.38477C5.5957 3.93477 5.79154 4.4056 6.1832 4.79727C6.57487 5.18893 7.0457 5.38477 7.5957 5.38477Z" fill="#28303B"/>
</svg>
