<svg width="24" height="24" viewBox="0 0 24 24" fill="none" xmlns="http://www.w3.org/2000/svg">
<mask id="mask0_108_9303" style="mask-type:alpha" maskUnits="userSpaceOnUse" x="0" y="0" width="24" height="24">
<rect width="24" height="24" fill="#D9D9D9"/>
</mask>
<g mask="url(#mask0_108_9303)">
<path d="M11.5 8.5V5.5H8.5V4.5H11.5V1.5H12.5V4.5H15.5V5.5H12.5V8.5H11.5ZM7.30775 21.1155C6.88592 21.1155 6.53042 20.9709 6.24125 20.6818C5.95225 20.3926 5.80775 20.0372 5.80775 19.6155C5.80775 19.1937 5.95225 18.8382 6.24125 18.549C6.53042 18.26 6.88592 18.1155 7.30775 18.1155C7.72958 18.1155 8.085 18.26 8.374 18.549C8.66317 18.8382 8.80775 19.1937 8.80775 19.6155C8.80775 20.0372 8.66317 20.3926 8.374 20.6818C8.085 20.9709 7.72958 21.1155 7.30775 21.1155ZM16.6923 21.1155C16.2704 21.1155 15.915 20.9709 15.626 20.6818C15.3368 20.3926 15.1923 20.0372 15.1923 19.6155C15.1923 19.1937 15.3368 18.8382 15.626 18.549C15.915 18.26 16.2704 18.1155 16.6923 18.1155C17.1141 18.1155 17.4696 18.26 17.7587 18.549C18.0478 18.8382 18.1923 19.1937 18.1923 19.6155C18.1923 20.0372 18.0478 20.3926 17.7587 20.6818C17.4696 20.9709 17.1141 21.1155 16.6923 21.1155ZM2 3.5V2.5H4.448L8.54425 11.1155H15.1788C15.2943 11.1155 15.3968 11.0866 15.4865 11.0288C15.5763 10.9711 15.6532 10.891 15.7172 10.7885L19.2135 4.5H20.3538L16.5693 11.3345C16.4244 11.5782 16.236 11.7692 16.004 11.9078C15.772 12.0463 15.5181 12.1155 15.2423 12.1155H8.1L6.8845 14.3462C6.782 14.5001 6.77883 14.6667 6.875 14.8462C6.97117 15.0257 7.11542 15.1155 7.30775 15.1155H18.1923V16.1155H7.30775C6.72442 16.1155 6.28817 15.8706 5.999 15.3807C5.71 14.8911 5.70392 14.3963 5.98075 13.8963L7.4845 11.2155L3.80775 3.5H2Z" fill="#28303B"/>
</g>
</svg>
