<svg width="24" height="24" viewBox="0 0 24 24" fill="none" xmlns="http://www.w3.org/2000/svg">
<mask id="mask0_51_81112" style="mask-type:alpha" maskUnits="userSpaceOnUse" x="0" y="0" width="24" height="24">
<rect width="24" height="24" fill="#D9D9D9"/>
</mask>
<g mask="url(#mask0_51_81112)">
<path d="M20.7155 21.423L18.1693 18.8962C17.8668 19.0872 17.5425 19.242 17.1965 19.3605C16.8505 19.4792 16.4902 19.5385 16.1155 19.5385C15.1732 19.5385 14.367 19.2036 13.697 18.5337C13.0272 17.8637 12.6923 17.0577 12.6923 16.1155C12.6923 15.1732 13.0272 14.367 13.697 13.697C14.367 13.0272 15.1732 12.6922 16.1155 12.6922C17.0577 12.6922 17.8637 13.0272 18.5337 13.697C19.2036 14.367 19.5385 15.1732 19.5385 16.1155C19.5385 16.4847 19.4856 16.8468 19.3798 17.202C19.2741 17.557 19.1065 17.8794 18.877 18.1692L21.423 20.7155L20.7155 21.423ZM16.111 18.5385C16.7883 18.5385 17.3623 18.3047 17.8328 17.837C18.3033 17.3693 18.5385 16.7969 18.5385 16.1197C18.5385 15.4424 18.3047 14.8685 17.837 14.398C17.3693 13.9275 16.7969 13.6922 16.1198 13.6922C15.4424 13.6922 14.8685 13.9261 14.398 14.3937C13.9275 14.8614 13.6923 15.4338 13.6923 16.111C13.6923 16.7883 13.9261 17.3622 14.3938 17.8327C14.8614 18.3032 15.4338 18.5385 16.111 18.5385ZM20 10.6922H19V5.61548C19 5.46148 18.9359 5.3204 18.8077 5.19223C18.6796 5.06407 18.5385 4.99998 18.3845 4.99998H16V7.23073H8V4.99998H5.6155C5.4615 4.99998 5.32042 5.06407 5.19225 5.19223C5.06408 5.3204 5 5.46148 5 5.61548V18.3845C5 18.5385 5.06408 18.6796 5.19225 18.8077C5.32042 18.9359 5.4615 19 5.6155 19H10.5V20H5.6155C5.17117 20 4.79083 19.8418 4.4745 19.5255C4.15817 19.2092 4 18.8288 4 18.3845V5.61548C4 5.17115 4.15817 4.79082 4.4745 4.47448C4.79083 4.15815 5.17117 3.99998 5.6155 3.99998H10.252C10.3455 3.60898 10.5532 3.28049 10.875 3.01449C11.1968 2.74832 11.5718 2.61523 12 2.61523C12.4358 2.61523 12.8138 2.74832 13.1337 3.01449C13.4536 3.28049 13.6603 3.60898 13.7538 3.99998H18.3845C18.8288 3.99998 19.2092 4.15815 19.5255 4.47448C19.8418 4.79082 20 5.17115 20 5.61548V10.6922ZM12.0033 5.23073C12.2331 5.23073 12.4247 5.15299 12.578 4.99749C12.7312 4.84215 12.8077 4.64957 12.8077 4.41973C12.8077 4.1899 12.73 3.9984 12.5745 3.84523C12.419 3.69207 12.2264 3.61548 11.9967 3.61548C11.7669 3.61548 11.5753 3.69315 11.422 3.84848C11.2688 4.00398 11.1923 4.19665 11.1923 4.42648C11.1923 4.65632 11.27 4.84782 11.4255 5.00098C11.581 5.15415 11.7736 5.23073 12.0033 5.23073Z" fill="#28303B"/>
</g>
</svg>
