<svg width="24" height="24" viewBox="0 0 24 24" fill="none" xmlns="http://www.w3.org/2000/svg">
<mask id="mask0_51_81094" style="mask-type:alpha" maskUnits="userSpaceOnUse" x="0" y="0" width="24" height="24">
<rect width="24" height="24" fill="#D9D9D9"/>
</mask>
<g mask="url(#mask0_51_81094)">
<path d="M12.0499 19.5C9.95755 19.5 8.17614 18.7698 6.70564 17.3095C5.23514 15.8493 4.49989 14.0795 4.49989 12V10.6135L2.39989 12.7135L1.69214 12.0058L4.99989 8.698L8.30764 12.0058L7.59989 12.7135L5.49989 10.6135V12C5.49989 13.8077 6.13547 15.3429 7.40664 16.6058C8.67781 17.8686 10.2256 18.5 12.0499 18.5C12.4447 18.5 12.8473 18.4596 13.2576 18.3788C13.6678 18.2981 14.0665 18.177 14.4536 18.0155L15.2036 18.7655C14.7115 19.0038 14.1993 19.1858 13.6671 19.3115C13.1351 19.4372 12.5961 19.5 12.0499 19.5ZM18.9999 15.302L15.6921 11.9942L16.3999 11.2865L18.4999 13.3865V12C18.4999 10.1923 17.8643 8.65708 16.5931 7.39425C15.322 6.13142 13.7742 5.5 11.9499 5.5C11.5551 5.5 11.1525 5.54042 10.7421 5.62125C10.332 5.70192 9.93331 5.823 9.54614 5.9845L8.79614 5.2345C9.28831 4.99617 9.80047 4.81417 10.3326 4.6885C10.8646 4.56283 11.4037 4.5 11.9499 4.5C14.0422 4.5 15.8236 5.23017 17.2941 6.6905C18.7646 8.15067 19.4999 9.9205 19.4999 12V13.3865L21.5999 11.2865L22.3076 11.9942L18.9999 15.302Z" fill="#28303B"/>
</g>
</svg>
