<svg width="24" height="24" viewBox="0 0 24 24" fill="none" xmlns="http://www.w3.org/2000/svg">
<mask id="mask0_318_38688" style="mask-type:alpha" maskUnits="userSpaceOnUse" x="0" y="0" width="24" height="24">
<rect width="24" height="24" fill="#D9D9D9"/>
</mask>
<g mask="url(#mask0_318_38688)">
<path d="M9.6155 20C9.168 20 8.78683 19.8427 8.472 19.528C8.15733 19.2132 8 18.832 8 18.3845V9.6155C8 9.168 8.15733 8.78683 8.472 8.472C8.78683 8.15733 9.168 8 9.6155 8H18.3845C18.832 8 19.2132 8.15733 19.528 8.472C19.8427 8.78683 20 9.168 20 9.6155V18.3845C20 18.832 19.8427 19.2132 19.528 19.528C19.2132 19.8427 18.832 20 18.3845 20H9.6155ZM9 11.6537H19V9.6155C19 9.436 18.9423 9.2885 18.827 9.173C18.7115 9.05767 18.564 9 18.3845 9H9.6155C9.436 9 9.2885 9.05767 9.173 9.173C9.05767 9.2885 9 9.436 9 9.6155V11.6537ZM12.6538 15.3463H15.3462V12.6538H12.6538V15.3463ZM12.6538 19H15.3462V16.3463H12.6538V19ZM9 15.3463H11.6537V12.6538H9V15.3463ZM16.3462 15.3463H19V12.6538H16.3462V15.3463ZM9.6155 19H11.6537V16.3463H9V18.3845C9 18.564 9.05767 18.7115 9.173 18.827C9.2885 18.9423 9.436 19 9.6155 19ZM16.3462 19H18.3845C18.564 19 18.7115 18.9423 18.827 18.827C18.9423 18.7115 19 18.564 19 18.3845V16.3463H16.3462V19ZM5.6155 16C5.168 16 4.78683 15.8427 4.472 15.528C4.15733 15.2132 4 14.832 4 14.3845V5.6155C4 5.168 4.15733 4.78683 4.472 4.472C4.78683 4.15733 5.168 4 5.6155 4H14.3845C14.832 4 15.2132 4.15733 15.528 4.472C15.8427 4.78683 16 5.168 16 5.6155V7H15V5.6155C15 5.436 14.9423 5.2885 14.827 5.173C14.7115 5.05767 14.564 5 14.3845 5H5.6155C5.436 5 5.2885 5.05767 5.173 5.173C5.05767 5.2885 5 5.436 5 5.6155V14.3845C5 14.564 5.05767 14.7115 5.173 14.827C5.2885 14.9423 5.436 15 5.6155 15H7V16H5.6155Z" fill="#28303B"/>
</g>
</svg>
