<svg width="24" height="24" viewBox="0 0 24 24" fill="none" xmlns="http://www.w3.org/2000/svg">
<mask id="mask0_108_12938" style="mask-type:alpha" maskUnits="userSpaceOnUse" x="0" y="0" width="24" height="24">
<rect width="24" height="24" fill="#D9D9D9"/>
</mask>
<g mask="url(#mask0_108_12938)">
<path d="M19 19.3845C19 19.8448 18.8458 20.2292 18.5375 20.5375C18.2292 20.8458 17.8448 21 17.3845 21H6.6155C6.15517 21 5.77083 20.8458 5.4625 20.5375C5.15417 20.2292 5 19.8448 5 19.3845L5 4.6155C5 4.15517 5.15417 3.77083 5.4625 3.4625C5.77083 3.15417 6.15517 3 6.6155 3H17.3845C17.8448 3 18.2292 3.15417 18.5375 3.4625C18.8458 3.77083 19 4.15517 19 4.6155V19.3845ZM18 11.5V8.25H6V11.5H18ZM18 15.75V12.5H6V15.75H18ZM18 19.3845V16.75H6V19.3845C6 19.564 6.05767 19.7115 6.173 19.827C6.2885 19.9423 6.436 20 6.6155 20H17.3845C17.564 20 17.7115 19.9423 17.827 19.827C17.9423 19.7115 18 19.564 18 19.3845ZM18 7.25V4.6155C18 4.436 17.9423 4.2885 17.827 4.173C17.7115 4.05766 17.564 4 17.3845 4H6.6155C6.436 4 6.2885 4.05766 6.173 4.173C6.05767 4.2885 6 4.436 6 4.6155V7.25H18Z" fill="#28303B"/>
</g>
</svg>
