<svg width="24" height="24" viewBox="0 0 24 24" fill="none" xmlns="http://www.w3.org/2000/svg">
<mask id="mask0_51_81082" style="mask-type:alpha" maskUnits="userSpaceOnUse" x="0" y="0" width="24" height="24">
<rect width="24" height="24" fill="#D9D9D9"/>
</mask>
<g mask="url(#mask0_51_81082)">
<path d="M11.2845 9.23075H19.5155C19.0782 8.05508 18.381 7.01633 17.424 6.1145C16.467 5.2125 15.3757 4.60767 14.15 4.3L11.2845 9.23075ZM9.2155 11.2308L13.3693 4.1C13.1859 4.06667 12.9577 4.04167 12.6845 4.025C12.4115 4.00833 12.1833 4 12 4C10.9 4 9.875 4.20833 8.925 4.625C7.975 5.04167 7.13333 5.6 6.4 6.3L9.2155 11.2308ZM4.25 14H9.93075L5.85375 6.90775C5.26925 7.62958 4.81417 8.41575 4.4885 9.26625C4.16283 10.1169 4 11.0282 4 12C4 12.35 4.02083 12.6875 4.0625 13.0125C4.10417 13.3375 4.16667 13.6667 4.25 14ZM9.8885 19.7L12.7423 14.7692H4.4845C4.92183 15.9449 5.62542 16.9837 6.59525 17.8855C7.56508 18.7875 8.66283 19.3923 9.8885 19.7ZM12 20C13.1 20 14.125 19.7917 15.075 19.375C16.025 18.9583 16.8667 18.4 17.6 17.7L14.7845 12.7692L10.6693 19.8615C10.8526 19.9077 11.0702 19.9423 11.322 19.9655C11.574 19.9885 11.8 20 12 20ZM18.1462 17.0922C18.6796 16.4089 19.1218 15.6228 19.473 14.7338C19.8243 13.8446 20 12.9333 20 12C20 11.65 19.9792 11.3125 19.9375 10.9875C19.8958 10.6625 19.8333 10.3333 19.75 10H14.0693L18.1462 17.0922ZM12 21C10.7615 21 9.59483 20.7632 8.5 20.2895C7.40517 19.8157 6.45167 19.1727 5.6395 18.3605C4.82733 17.5483 4.18433 16.5948 3.7105 15.5C3.23683 14.4052 3 13.2385 3 12C3 10.7577 3.23683 9.59 3.7105 8.497C4.18433 7.40417 4.82733 6.45167 5.6395 5.6395C6.45167 4.82733 7.40517 4.18433 8.5 3.7105C9.59483 3.23683 10.7615 3 12 3C13.2423 3 14.41 3.23683 15.503 3.7105C16.5958 4.18433 17.5483 4.82733 18.3605 5.6395C19.1727 6.45167 19.8157 7.40417 20.2895 8.497C20.7632 9.59 21 10.7577 21 12C21 13.2385 20.7632 14.4052 20.2895 15.5C19.8157 16.5948 19.1727 17.5483 18.3605 18.3605C17.5483 19.1727 16.5958 19.8157 15.503 20.2895C14.41 20.7632 13.2423 21 12 21Z" fill="#28303B"/>
</g>
</svg>
