<svg width="24" height="24" viewBox="0 0 24 24" fill="none" xmlns="http://www.w3.org/2000/svg">
<mask id="mask0_318_38697" style="mask-type:alpha" maskUnits="userSpaceOnUse" x="0" y="0" width="24" height="24">
<rect width="24" height="24" fill="#D9D9D9"/>
</mask>
<g mask="url(#mask0_318_38697)">
<path d="M19 20.5C18.4013 20.5 17.8725 20.3125 17.4135 19.9375C16.9545 19.5625 16.6698 19.0833 16.5595 18.5H11C10.0282 18.5 9.20192 18.1596 8.52125 17.4788C7.84042 16.7981 7.5 15.9718 7.5 15C7.5 14.0282 7.84042 13.2019 8.52125 12.5213C9.20192 11.8404 10.0282 11.5 11 11.5H13C13.6875 11.5 14.276 11.2548 14.7655 10.7645C15.2552 10.2742 15.5 9.68475 15.5 8.99625C15.5 8.30775 15.2552 7.71958 14.7655 7.23175C14.276 6.74392 13.6875 6.5 13 6.5H7.4405C7.32633 7.08333 7.04075 7.5625 6.58375 7.9375C6.12658 8.3125 5.59867 8.5 5 8.5C4.3055 8.5 3.71525 8.25717 3.22925 7.7715C2.74308 7.28583 2.5 6.69608 2.5 6.00225C2.5 5.30842 2.74308 4.71792 3.22925 4.23075C3.71525 3.74358 4.3055 3.5 5 3.5C5.59867 3.5 6.12658 3.6875 6.58375 4.0625C7.04075 4.4375 7.32633 4.91667 7.4405 5.5H13C13.9718 5.5 14.7981 5.84042 15.4788 6.52125C16.1596 7.20192 16.5 8.02817 16.5 9C16.5 9.97183 16.1596 10.7981 15.4788 11.4787C14.7981 12.1596 13.9718 12.5 13 12.5H11C10.3125 12.5 9.724 12.7452 9.2345 13.2355C8.74483 13.7258 8.5 14.3152 8.5 15.0037C8.5 15.6923 8.74483 16.2804 9.2345 16.7682C9.724 17.2561 10.3125 17.5 11 17.5H16.5595C16.6737 16.9167 16.9593 16.4375 17.4163 16.0625C17.8734 15.6875 18.4013 15.5 19 15.5C19.6945 15.5 20.2847 15.7428 20.7708 16.2285C21.2569 16.7142 21.5 17.3039 21.5 17.9978C21.5 18.6916 21.2569 19.2821 20.7708 19.7693C20.2847 20.2564 19.6945 20.5 19 20.5ZM5 7.5C5.4115 7.5 5.76442 7.35292 6.05875 7.05875C6.35292 6.76442 6.5 6.4115 6.5 6C6.5 5.5885 6.35292 5.23558 6.05875 4.94125C5.76442 4.64708 5.4115 4.5 5 4.5C4.5885 4.5 4.23558 4.64708 3.94125 4.94125C3.64708 5.23558 3.5 5.5885 3.5 6C3.5 6.4115 3.64708 6.76442 3.94125 7.05875C4.23558 7.35292 4.5885 7.5 5 7.5Z" fill="#28303B"/>
</g>
</svg>
