<svg width="24" height="24" viewBox="0 0 24 24" fill="none" xmlns="http://www.w3.org/2000/svg">
<mask id="mask0_51_81224" style="mask-type:alpha" maskUnits="userSpaceOnUse" x="0" y="0" width="24" height="24">
<rect width="24" height="24" fill="#D9D9D9"/>
</mask>
<g mask="url(#mask0_51_81224)">
<path d="M5.02119 19.9234C4.73519 19.9811 4.49186 19.9096 4.29119 19.7091C4.09069 19.5085 4.01927 19.2651 4.07694 18.9791L4.74994 15.7234L8.27694 19.2504L5.02119 19.9234ZM8.27694 19.2504L4.74994 15.7234L15.7384 4.73489C16.0448 4.42856 16.4236 4.27539 16.8749 4.27539C17.3263 4.27539 17.7051 4.42856 18.0114 4.73489L19.2654 5.98889C19.5718 6.29522 19.7249 6.67406 19.7249 7.12539C19.7249 7.57672 19.5718 7.95556 19.2654 8.26189L8.27694 19.2504ZM16.4519 5.44264L6.35194 15.5234L8.47694 17.6484L18.5577 7.54839C18.673 7.43306 18.7307 7.28889 18.7307 7.11589C18.7307 6.94272 18.673 6.79847 18.5577 6.68314L17.3172 5.44264C17.2019 5.32731 17.0576 5.26964 16.8844 5.26964C16.7114 5.26964 16.5673 5.32731 16.4519 5.44264Z" fill="#28303B"/>
</g>
</svg>
