<svg width="159" height="24" viewBox="0 0 159 24" fill="none" xmlns="http://www.w3.org/2000/svg">
<mask id="mask0_380_76789" style="mask-type:alpha" maskUnits="userSpaceOnUse" x="0" y="0" width="24" height="24">
<rect width="24" height="24" fill="#D9D9D9"/>
</mask>
<g mask="url(#mask0_380_76789)">
<path d="M9.1155 17C8.65517 17 8.27083 16.8458 7.9625 16.5375C7.65417 16.2292 7.5 15.8448 7.5 15.3845V4.6155C7.5 4.15517 7.65417 3.77083 7.9625 3.4625C8.27083 3.15417 8.65517 3 9.1155 3H16.8845C17.3448 3 17.7292 3.15417 18.0375 3.4625C18.3458 3.77083 18.5 4.15517 18.5 4.6155V15.3845C18.5 15.8448 18.3458 16.2292 18.0375 16.5375C17.7292 16.8458 17.3448 17 16.8845 17H9.1155ZM9.1155 16H16.8845C17.0385 16 17.1796 15.9359 17.3077 15.8077C17.4359 15.6796 17.5 15.5385 17.5 15.3845V4.6155C17.5 4.4615 17.4359 4.32042 17.3077 4.19225C17.1796 4.06408 17.0385 4 16.8845 4H9.1155C8.9615 4 8.82042 4.06408 8.69225 4.19225C8.56408 4.32042 8.5 4.4615 8.5 4.6155V15.3845C8.5 15.5385 8.56408 15.6796 8.69225 15.8077C8.82042 15.9359 8.9615 16 9.1155 16ZM6.1155 20C5.65517 20 5.27083 19.8458 4.9625 19.5375C4.65417 19.2292 4.5 18.8449 4.5 18.3848V6.6155H5.5V18.3848C5.5 18.5386 5.56408 18.6796 5.69225 18.8077C5.82042 18.9359 5.9615 19 6.1155 19H14.8845V20H6.1155Z" fill="#28303B"/>
</g>
<mask id="mask1_380_76789" style="mask-type:alpha" maskUnits="userSpaceOnUse" x="45" y="0" width="24" height="24">
<rect x="45" width="24" height="24" fill="#D9D9D9"/>
</mask>
<g mask="url(#mask1_380_76789)">
<path d="M50 19H51.098L61.7962 8.302L60.698 7.20375L50 17.902V19ZM49 20V17.4808L62.1807 4.2865C62.2832 4.19517 62.3963 4.12458 62.52 4.07475C62.6438 4.02492 62.7729 4 62.9072 4C63.0416 4 63.1717 4.02117 63.2977 4.0635C63.4236 4.10583 63.5398 4.18208 63.6462 4.29225L64.7135 5.3655C64.8237 5.47183 64.899 5.5885 64.9395 5.7155C64.9798 5.84267 65 5.96975 65 6.09675C65 6.23225 64.9772 6.36192 64.9315 6.48575C64.8858 6.60942 64.8132 6.7225 64.7135 6.825L51.5192 20H49ZM61.2375 7.7625L60.698 7.20375L61.7962 8.302L61.2375 7.7625Z" fill="#28303B"/>
</g>
<mask id="mask2_380_76789" style="mask-type:alpha" maskUnits="userSpaceOnUse" x="90" y="0" width="24" height="24">
<rect x="90" width="24" height="24" fill="#D9D9D9"/>
</mask>
<g mask="url(#mask2_380_76789)">
<path d="M102.05 19.5C99.9576 19.5 98.1761 18.7698 96.7056 17.3095C95.2351 15.8493 94.4999 14.0795 94.4999 12V10.6135L92.3999 12.7135L91.6921 12.0058L94.9999 8.698L98.3076 12.0058L97.5999 12.7135L95.4999 10.6135V12C95.4999 13.8077 96.1355 15.3429 97.4066 16.6058C98.6778 17.8686 100.226 18.5 102.05 18.5C102.445 18.5 102.847 18.4596 103.258 18.3788C103.668 18.2981 104.066 18.177 104.454 18.0155L105.204 18.7655C104.711 19.0038 104.199 19.1858 103.667 19.3115C103.135 19.4372 102.596 19.5 102.05 19.5ZM109 15.302L105.692 11.9942L106.4 11.2865L108.5 13.3865V12C108.5 10.1923 107.864 8.65708 106.593 7.39425C105.322 6.13142 103.774 5.5 101.95 5.5C101.555 5.5 101.152 5.54042 100.742 5.62125C100.332 5.70192 99.9333 5.823 99.5461 5.9845L98.7961 5.2345C99.2883 4.99617 99.8005 4.81417 100.333 4.6885C100.865 4.56283 101.404 4.5 101.95 4.5C104.042 4.5 105.824 5.23017 107.294 6.6905C108.765 8.15067 109.5 9.9205 109.5 12V13.3865L111.6 11.2865L112.308 11.9942L109 15.302Z" fill="#28303B"/>
</g>
<mask id="mask3_380_76789" style="mask-type:alpha" maskUnits="userSpaceOnUse" x="135" y="0" width="24" height="24">
<rect x="135" width="24" height="24" fill="#D9D9D9"/>
</mask>
<g mask="url(#mask3_380_76789)">
<path d="M142.615 19.9997C142.168 19.9997 141.787 19.8424 141.472 19.5277C141.157 19.2129 141 18.8317 141 18.3842V5.99972H140V4.99972H144V4.23047H150V4.99972H154V5.99972H153V18.3842C153 18.8446 152.846 19.2289 152.538 19.5372C152.229 19.8456 151.845 19.9997 151.385 19.9997H142.615ZM152 5.99972H142V18.3842C142 18.5637 142.058 18.7112 142.173 18.8267C142.289 18.9421 142.436 18.9997 142.615 18.9997H151.385C151.539 18.9997 151.68 18.9356 151.808 18.8075C151.936 18.6793 152 18.5382 152 18.3842V5.99972ZM144.808 16.9997H145.808V7.99972H144.808V16.9997ZM148.192 16.9997H149.192V7.99972H148.192V16.9997Z" fill="#28303B"/>
</g>
</svg>
