<svg width="24" height="24" viewBox="0 0 24 24" fill="none" xmlns="http://www.w3.org/2000/svg">
<mask id="mask0_318_38718" style="mask-type:alpha" maskUnits="userSpaceOnUse" x="0" y="0" width="24" height="24">
<rect width="24" height="24" fill="#D9D9D9"/>
</mask>
<g mask="url(#mask0_318_38718)">
<path d="M15.5 19.2135L11.9423 15.6557L12.65 14.948L15.5 17.798L21.1885 12.1095L21.8962 12.8172L15.5 19.2135ZM20 9.99998H19V5.61548C19 5.46148 18.9359 5.3204 18.8077 5.19223C18.6796 5.06407 18.5385 4.99998 18.3845 4.99998H16V7.23073H8V4.99998H5.6155C5.4615 4.99998 5.32042 5.06407 5.19225 5.19223C5.06408 5.3204 5 5.46148 5 5.61548V18.3845C5 18.5385 5.06408 18.6796 5.19225 18.8077C5.32042 18.9359 5.4615 19 5.6155 19H11V20H5.6155C5.168 20 4.78683 19.8427 4.472 19.528C4.15733 19.2132 4 18.832 4 18.3845V5.61548C4 5.16798 4.15733 4.78682 4.472 4.47198C4.78683 4.15732 5.168 3.99998 5.6155 3.99998H10.252C10.3455 3.60898 10.5532 3.28049 10.875 3.01449C11.1968 2.74832 11.5718 2.61523 12 2.61523C12.4358 2.61523 12.8138 2.74832 13.1337 3.01449C13.4536 3.28049 13.6603 3.60898 13.7538 3.99998H18.3845C18.832 3.99998 19.2132 4.15732 19.528 4.47198C19.8427 4.78682 20 5.16798 20 5.61548V9.99998ZM12 5.23073C12.232 5.23073 12.4247 5.15415 12.578 5.00098C12.7312 4.84782 12.8077 4.65515 12.8077 4.42298C12.8077 4.19098 12.7312 3.9984 12.578 3.84523C12.4247 3.69207 12.232 3.61548 12 3.61548C11.768 3.61548 11.5753 3.69207 11.422 3.84523C11.2688 3.9984 11.1923 4.19098 11.1923 4.42298C11.1923 4.65515 11.2688 4.84782 11.422 5.00098C11.5753 5.15415 11.768 5.23073 12 5.23073Z" fill="#28303B"/>
</g>
</svg>
