<svg width="24" height="24" viewBox="0 0 24 24" fill="none" xmlns="http://www.w3.org/2000/svg">
<mask id="mask0_318_38685" style="mask-type:alpha" maskUnits="userSpaceOnUse" x="0" y="0" width="24" height="24">
<rect width="24" height="24" fill="#D9D9D9"/>
</mask>
<g mask="url(#mask0_318_38685)">
<path d="M8.5 11.5V10.5H15.5V11.5H8.5ZM8.5 7.5V6.5H15.5V7.5H8.5ZM6 14.5H13.5C13.9063 14.5 14.2794 14.5882 14.6193 14.7645C14.9589 14.9407 15.2512 15.1884 15.4962 15.5078L18 18.7578V4.6155C18 4.436 17.9423 4.2885 17.827 4.173C17.7115 4.05767 17.564 4 17.3845 4H6.6155C6.436 4 6.2885 4.05767 6.173 4.173C6.05767 4.2885 6 4.436 6 4.6155V14.5ZM6.6155 20H17.6845L14.7095 16.1173C14.5583 15.9199 14.3798 15.7677 14.174 15.6605C13.9683 15.5535 13.7437 15.5 13.5 15.5H6V19.3845C6 19.564 6.05767 19.7115 6.173 19.827C6.2885 19.9423 6.436 20 6.6155 20ZM17.3845 21H6.6155C6.15517 21 5.77083 20.8458 5.4625 20.5375C5.15417 20.2292 5 19.8448 5 19.3845V4.6155C5 4.15517 5.15417 3.77083 5.4625 3.4625C5.77083 3.15417 6.15517 3 6.6155 3H17.3845C17.8448 3 18.2292 3.15417 18.5375 3.4625C18.8458 3.77083 19 4.15517 19 4.6155V19.3845C19 19.8448 18.8458 20.2292 18.5375 20.5375C18.2292 20.8458 17.8448 21 17.3845 21Z" fill="#28303B"/>
</g>
</svg>
