<svg width="24" height="24" viewBox="0 0 24 24" fill="none" xmlns="http://www.w3.org/2000/svg">
<mask id="mask0_318_38691" style="mask-type:alpha" maskUnits="userSpaceOnUse" x="0" y="0" width="24" height="24">
<rect width="24" height="24" fill="#D9D9D9"/>
</mask>
<g mask="url(#mask0_318_38691)">
<path d="M18.6538 8.69225C17.8126 8.69225 17.0822 8.42175 16.4625 7.88075C15.8427 7.33975 15.4738 6.66158 15.3558 5.84625H8.61925C8.51275 6.57175 8.20533 7.19192 7.697 7.70675C7.18867 8.22142 6.57175 8.532 5.84625 8.6385V15.3558C6.66158 15.4738 7.33975 15.8427 7.88075 16.4625C8.42175 17.0822 8.69225 17.8126 8.69225 18.6538C8.69225 19.5871 8.36792 20.3782 7.71925 21.027C7.07058 21.6757 6.27958 22 5.34625 22C4.41292 22 3.62183 21.6757 2.973 21.027C2.32433 20.3782 2 19.5871 2 18.6538C2 17.8126 2.2705 17.0822 2.8115 16.4625C3.3525 15.8427 4.03075 15.4738 4.84625 15.3558V8.6385C4.03075 8.5205 3.3525 8.15317 2.8115 7.5365C2.2705 6.91983 2 6.18975 2 5.34625C2 4.41292 2.32575 3.62183 2.97725 2.973C3.62875 2.32433 4.412 2 5.327 2C6.1705 2 6.90058 2.2705 7.51725 2.8115C8.13392 3.3525 8.50125 4.03075 8.61925 4.84625H15.3558C15.4738 4.03075 15.8427 3.3525 16.4625 2.8115C17.0822 2.2705 17.8126 2 18.6538 2C19.5741 2 20.3618 2.32767 21.017 2.983C21.6723 3.63817 22 4.42592 22 5.34625C22 6.27958 21.6723 7.07058 21.017 7.71925C20.3618 8.36792 19.5741 8.69225 18.6538 8.69225ZM5.334 21.0193C5.99467 21.0193 6.55292 20.7872 7.00875 20.323C7.46442 19.859 7.69225 19.3067 7.69225 18.666C7.69225 18.0053 7.46442 17.4471 7.00875 16.9913C6.55292 16.5356 5.99467 16.3077 5.334 16.3077C4.69333 16.3077 4.141 16.5356 3.677 16.9913C3.21283 17.4471 2.98075 18.0053 2.98075 18.666C2.98075 19.3067 3.21283 19.859 3.677 20.323C4.141 20.7872 4.69333 21.0193 5.334 21.0193ZM5.334 7.7115C5.99467 7.7115 6.55292 7.47967 7.00875 7.016C7.46442 6.55233 7.69225 5.995 7.69225 5.344C7.69225 4.69283 7.46442 4.13942 7.00875 3.68375C6.55292 3.22792 5.99467 3 5.334 3C4.69333 3 4.141 3.22792 3.677 3.68375C3.21283 4.13942 2.98075 4.69283 2.98075 5.344C2.98075 5.995 3.21283 6.55233 3.677 7.016C4.141 7.47967 4.69333 7.7115 5.334 7.7115ZM18.6538 22C17.7204 22 16.9294 21.6757 16.2807 21.027C15.6321 20.3782 15.3077 19.5918 15.3077 18.6678C15.3077 17.7438 15.6321 16.9528 16.2807 16.2948C16.9294 15.6368 17.7204 15.3077 18.6538 15.3077C19.5871 15.3077 20.3782 15.6368 21.027 16.2948C21.6757 16.9528 22 17.7438 22 18.6678C22 19.5918 21.6757 20.3782 21.027 21.027C20.3782 21.6757 19.5871 22 18.6538 22ZM18.656 21.0193C19.3072 21.0193 19.8606 20.7872 20.3163 20.323C20.7721 19.859 21 19.3067 21 18.666C21 18.0053 20.7721 17.4471 20.3163 16.9913C19.8606 16.5356 19.3072 16.3077 18.656 16.3077C18.005 16.3077 17.4477 16.5356 16.984 16.9913C16.5203 17.4471 16.2885 18.0053 16.2885 18.666C16.2885 19.3067 16.5203 19.859 16.984 20.323C17.4477 20.7872 18.005 21.0193 18.656 21.0193ZM18.656 7.7115C19.3072 7.7115 19.8606 7.47967 20.3163 7.016C20.7721 6.55233 21 5.995 21 5.344C21 4.69283 20.7721 4.13942 20.3163 3.68375C19.8606 3.22792 19.3072 3 18.656 3C18.005 3 17.4477 3.22792 16.984 3.68375C16.5203 4.13942 16.2885 4.69283 16.2885 5.344C16.2885 5.995 16.5203 6.55233 16.984 7.016C17.4477 7.47967 18.005 7.7115 18.656 7.7115Z" fill="#28303B"/>
</g>
</svg>
