<svg width="24" height="24" viewBox="0 0 24 24" fill="none" xmlns="http://www.w3.org/2000/svg">
<mask id="mask0_318_38712" style="mask-type:alpha" maskUnits="userSpaceOnUse" x="0" y="0" width="24" height="24">
<rect width="24" height="24" fill="#D9D9D9"/>
</mask>
<g mask="url(#mask0_318_38712)">
<path d="M8.11675 16.5385C8.33508 16.5385 8.51767 16.4647 8.6645 16.317C8.81117 16.1693 8.8845 15.9863 8.8845 15.768C8.8845 15.5497 8.81067 15.3671 8.663 15.2203C8.51533 15.0734 8.33233 15 8.114 15C7.89567 15 7.71308 15.0738 7.56625 15.2215C7.41958 15.3692 7.34625 15.5522 7.34625 15.7705C7.34625 15.9888 7.42008 16.1714 7.56775 16.3183C7.71542 16.4651 7.89842 16.5385 8.11675 16.5385ZM8.11675 12.7692C8.33508 12.7692 8.51767 12.6954 8.6645 12.5478C8.81117 12.4001 8.8845 12.2171 8.8845 11.9988C8.8845 11.7804 8.81067 11.5978 8.663 11.451C8.51533 11.3042 8.33233 11.2308 8.114 11.2308C7.89567 11.2308 7.71308 11.3046 7.56625 11.4523C7.41958 11.5999 7.34625 11.7829 7.34625 12.0013C7.34625 12.2196 7.42008 12.4022 7.56775 12.549C7.71542 12.6958 7.89842 12.7692 8.11675 12.7692ZM8.11675 9C8.33508 9 8.51767 8.92617 8.6645 8.7785C8.81117 8.63083 8.8845 8.44783 8.8845 8.2295C8.8845 8.01117 8.81067 7.82858 8.663 7.68175C8.51533 7.53492 8.33233 7.4615 8.114 7.4615C7.89567 7.4615 7.71308 7.53533 7.56625 7.683C7.41958 7.83067 7.34625 8.01367 7.34625 8.232C7.34625 8.45033 7.42008 8.63292 7.56775 8.77975C7.71542 8.92658 7.89842 9 8.11675 9ZM11.1923 16.2692H16.577V15.2692H11.1923V16.2692ZM11.1923 12.5H16.577V11.5H11.1923V12.5ZM11.1923 8.73075H16.577V7.73075H11.1923V8.73075ZM5.6155 20C5.15517 20 4.77083 19.8458 4.4625 19.5375C4.15417 19.2292 4 18.8448 4 18.3845V5.6155C4 5.15517 4.15417 4.77083 4.4625 4.4625C4.77083 4.15417 5.15517 4 5.6155 4H18.3845C18.8448 4 19.2292 4.15417 19.5375 4.4625C19.8458 4.77083 20 5.15517 20 5.6155V18.3845C20 18.8448 19.8458 19.2292 19.5375 19.5375C19.2292 19.8458 18.8448 20 18.3845 20H5.6155ZM5.6155 19H18.3845C18.5385 19 18.6796 18.9359 18.8077 18.8077C18.9359 18.6796 19 18.5385 19 18.3845V5.6155C19 5.4615 18.9359 5.32042 18.8077 5.19225C18.6796 5.06408 18.5385 5 18.3845 5H5.6155C5.4615 5 5.32042 5.06408 5.19225 5.19225C5.06408 5.32042 5 5.4615 5 5.6155V18.3845C5 18.5385 5.06408 18.6796 5.19225 18.8077C5.32042 18.9359 5.4615 19 5.6155 19Z" fill="#28303B"/>
</g>
</svg>
