<svg width="24" height="24" viewBox="0 0 24 24" fill="none" xmlns="http://www.w3.org/2000/svg">
<mask id="mask0_51_81203" style="mask-type:alpha" maskUnits="userSpaceOnUse" x="0" y="0" width="24" height="24">
<rect width="24" height="24" fill="#D9D9D9"/>
</mask>
<g mask="url(#mask0_51_81203)">
<path d="M5 20V19H19V20H5ZM8.1345 16.2308C7.26533 16.2308 6.52567 15.9352 5.9155 15.3442C5.30517 14.7533 5 14.0359 5 13.1923V4H19.3077C19.7731 4 20.1715 4.15733 20.503 4.472C20.8343 4.78683 21 5.17433 21 5.6345V7.8655C21 8.32567 20.8343 8.71317 20.503 9.028C20.1715 9.34267 19.7731 9.5 19.3077 9.5H17.3077V13.1923C17.3077 14.0359 17.0026 14.7533 16.3923 15.3442C15.7821 15.9352 15.0423 16.2308 14.173 16.2308H8.1345ZM8.1345 15.2308H14.173C14.76 15.2308 15.2626 15.0304 15.6807 14.6298C16.0988 14.2291 16.3077 13.7473 16.3077 13.1845V5H6V13.1918C6 13.7549 6.209 14.2356 6.627 14.6337C7.045 15.0317 7.5475 15.2308 8.1345 15.2308ZM17.3077 8.5H19.3077C19.5001 8.5 19.6635 8.43908 19.798 8.31725C19.9327 8.19542 20 8.04483 20 7.8655V5.6345C20 5.45517 19.9327 5.30458 19.798 5.18275C19.6635 5.06092 19.5001 5 19.3077 5H17.3077V8.5ZM8.1345 15.2308H6H16.3077H8.1345Z" fill="#28303B"/>
</g>
</svg>
