<svg width="24" height="24" viewBox="0 0 24 24" fill="none" xmlns="http://www.w3.org/2000/svg">
<mask id="mask0_51_81050" style="mask-type:alpha" maskUnits="userSpaceOnUse" x="0" y="0" width="24" height="24">
<rect width="24" height="24" fill="#D9D9D9"/>
</mask>
<g mask="url(#mask0_51_81050)">
<path d="M11.4998 21.4508V19.9893C9.41647 19.7944 7.6963 19.0184 6.3393 17.6613C4.98214 16.3043 4.20614 14.5841 4.0113 12.5008H2.5498V11.5008H4.0113C4.20614 9.41745 4.98214 7.69728 6.3393 6.34028C7.6963 4.98312 9.41647 4.20712 11.4998 4.01228V2.55078H12.4998V4.01228C14.5831 4.20712 16.3033 4.98312 17.6603 6.34028C19.0175 7.69728 19.7935 9.41745 19.9883 11.5008H21.4498V12.5008H19.9883C19.7935 14.5841 19.0175 16.3043 17.6603 17.6613C16.3033 19.0184 14.5831 19.7944 12.4998 19.9893V21.4508H11.4998ZM11.9998 19.0008C13.9331 19.0008 15.5831 18.3174 16.9498 16.9508C18.3165 15.5841 18.9998 13.9341 18.9998 12.0008C18.9998 10.0674 18.3165 8.41745 16.9498 7.05078C15.5831 5.68411 13.9331 5.00078 11.9998 5.00078C10.0665 5.00078 8.41647 5.68411 7.0498 7.05078C5.68314 8.41745 4.9998 10.0674 4.9998 12.0008C4.9998 13.9341 5.68314 15.5841 7.0498 16.9508C8.41647 18.3174 10.0665 19.0008 11.9998 19.0008ZM11.9998 15.0008C11.1748 15.0008 10.4686 14.707 9.88105 14.1195C9.29355 13.532 8.9998 12.8258 8.9998 12.0008C8.9998 11.1758 9.29355 10.4695 9.88105 9.88203C10.4686 9.29453 11.1748 9.00078 11.9998 9.00078C12.8248 9.00078 13.5311 9.29453 14.1186 9.88203C14.7061 10.4695 14.9998 11.1758 14.9998 12.0008C14.9998 12.8258 14.7061 13.532 14.1186 14.1195C13.5311 14.707 12.8248 15.0008 11.9998 15.0008ZM11.9998 14.0008C12.5498 14.0008 13.0206 13.8049 13.4123 13.4133C13.804 13.0216 13.9998 12.5508 13.9998 12.0008C13.9998 11.4508 13.804 10.9799 13.4123 10.5883C13.0206 10.1966 12.5498 10.0008 11.9998 10.0008C11.4498 10.0008 10.979 10.1966 10.5873 10.5883C10.1956 10.9799 9.9998 11.4508 9.9998 12.0008C9.9998 12.5508 10.1956 13.0216 10.5873 13.4133C10.979 13.8049 11.4498 14.0008 11.9998 14.0008Z" fill="#28303B"/>
</g>
</svg>
