<svg width="24" height="24" viewBox="0 0 24 24" fill="none" xmlns="http://www.w3.org/2000/svg">
<mask id="mask0_51_81059" style="mask-type:alpha" maskUnits="userSpaceOnUse" x="0" y="0" width="24" height="24">
<rect width="24" height="24" fill="#D9D9D9"/>
</mask>
<g mask="url(#mask0_51_81059)">
<path d="M11.961 13C11.693 13 11.4594 12.9003 11.26 12.701C11.0607 12.5017 10.961 12.268 10.961 12C10.961 11.732 11.0607 11.4983 11.26 11.299C11.4594 11.0997 11.693 11 11.961 11C12.229 11 12.4627 11.0997 12.662 11.299C12.8614 11.4983 12.961 11.732 12.961 12C12.961 12.268 12.8614 12.5017 12.662 12.701C12.4627 12.9003 12.229 13 11.961 13ZM11.961 20C9.92636 20 8.15519 19.3337 6.64752 18.001C5.13986 16.6683 4.26744 15.0013 4.03027 13H5.04177C5.31361 14.7205 6.09986 16.1507 7.40052 17.2905C8.70119 18.4302 10.2214 19 11.961 19C13.911 19 15.5652 18.3208 16.9235 16.9625C18.2819 15.6042 18.961 13.95 18.961 12C18.961 10.05 18.2819 8.39583 16.9235 7.0375C15.5652 5.67917 13.911 5 11.961 5C10.9264 5 9.95394 5.21858 9.04377 5.65575C8.13344 6.09292 7.33019 6.69483 6.63402 7.4615H9.11502V8.4615H4.96102V4.30775H5.96102V6.69625C6.73419 5.84742 7.64027 5.18583 8.67927 4.7115C9.71844 4.23717 10.8124 4 11.961 4C13.071 4 14.1107 4.20867 15.08 4.626C16.0494 5.04333 16.8965 5.6145 17.6215 6.3395C18.3465 7.0645 18.9177 7.91158 19.335 8.88075C19.7524 9.84975 19.961 10.8892 19.961 11.999C19.961 13.1087 19.7524 14.1484 19.335 15.1183C18.9177 16.0881 18.3465 16.9355 17.6215 17.6605C16.8965 18.3855 16.0494 18.9567 15.08 19.374C14.1107 19.7913 13.071 20 11.961 20Z" fill="#28303B"/>
</g>
</svg>
