<svg width="24" height="24" viewBox="0 0 24 24" fill="none" xmlns="http://www.w3.org/2000/svg">
<mask id="mask0_51_81118" style="mask-type:alpha" maskUnits="userSpaceOnUse" x="0" y="0" width="24" height="24">
<rect width="24" height="24" fill="#D9D9D9"/>
</mask>
<g mask="url(#mask0_51_81118)">
<path d="M7.80775 20H16.1923V17C16.1923 15.823 15.7878 14.8173 14.9788 13.9827C14.1699 13.1481 13.177 12.7308 12 12.7308C10.823 12.7308 9.83008 13.1481 9.02125 13.9827C8.21225 14.8173 7.80775 15.823 7.80775 17V20ZM5 21V20H6.80775V17C6.80775 15.7653 7.18625 14.6702 7.94325 13.7145C8.70025 12.7587 9.67042 12.1872 10.8537 12C9.67042 11.8 8.70025 11.2253 7.94325 10.276C7.18625 9.32667 6.80775 8.23467 6.80775 7V4H5V3H19V4H17.1923V7C17.1923 8.23467 16.8138 9.32667 16.0568 10.276C15.2998 11.2253 14.3296 11.8 13.1462 12C14.3296 12.1872 15.2998 12.7587 16.0568 13.7145C16.8138 14.6702 17.1923 15.7653 17.1923 17V20H19V21H5Z" fill="#28303B"/>
</g>
</svg>
