<svg width="24" height="24" viewBox="0 0 24 24" fill="none" xmlns="http://www.w3.org/2000/svg">
<mask id="mask0_318_38682" style="mask-type:alpha" maskUnits="userSpaceOnUse" x="0" y="0" width="24" height="24">
<rect width="24" height="24" fill="#D9D9D9"/>
</mask>
<g mask="url(#mask0_318_38682)">
<path d="M8 8.80775C8.21917 8.80775 8.40858 8.72792 8.56825 8.56825C8.72792 8.40858 8.80775 8.21917 8.80775 8C8.80775 7.78083 8.72792 7.59142 8.56825 7.43175C8.40858 7.27208 8.21917 7.19225 8 7.19225C7.78083 7.19225 7.59142 7.27208 7.43175 7.43175C7.27208 7.59142 7.19225 7.78083 7.19225 8C7.19225 8.21917 7.27208 8.40858 7.43175 8.56825C7.59142 8.72792 7.78083 8.80775 8 8.80775ZM8 12.8077C8.21917 12.8077 8.40858 12.7279 8.56825 12.5683C8.72792 12.4086 8.80775 12.2192 8.80775 12C8.80775 11.7808 8.72792 11.5914 8.56825 11.4317C8.40858 11.2721 8.21917 11.1923 8 11.1923C7.78083 11.1923 7.59142 11.2721 7.43175 11.4317C7.27208 11.5914 7.19225 11.7808 7.19225 12C7.19225 12.2192 7.27208 12.4086 7.43175 12.5683C7.59142 12.7279 7.78083 12.8077 8 12.8077ZM8 16.8077C8.21917 16.8077 8.40858 16.7279 8.56825 16.5683C8.72792 16.4086 8.80775 16.2192 8.80775 16C8.80775 15.7808 8.72792 15.5914 8.56825 15.4318C8.40858 15.2721 8.21917 15.1923 8 15.1923C7.78083 15.1923 7.59142 15.2721 7.43175 15.4318C7.27208 15.5914 7.19225 15.7808 7.19225 16C7.19225 16.2192 7.27208 16.4086 7.43175 16.5683C7.59142 16.7279 7.78083 16.8077 8 16.8077ZM5.6155 20C5.15517 20 4.77083 19.8458 4.4625 19.5375C4.15417 19.2292 4 18.8448 4 18.3845V5.6155C4 5.15517 4.15417 4.77083 4.4625 4.4625C4.77083 4.15417 5.15517 4 5.6155 4H15.577L20 8.423V18.3845C20 18.8448 19.8458 19.2292 19.5375 19.5375C19.2292 19.8458 18.8448 20 18.3845 20H5.6155ZM5.6155 19H18.3845C18.564 19 18.7115 18.9423 18.827 18.827C18.9423 18.7115 19 18.564 19 18.3845V9H15V5H5.6155C5.436 5 5.2885 5.05767 5.173 5.173C5.05767 5.2885 5 5.436 5 5.6155V18.3845C5 18.564 5.05767 18.7115 5.173 18.827C5.2885 18.9423 5.436 19 5.6155 19Z" fill="#28303B"/>
</g>
</svg>
