<svg width="24" height="24" viewBox="0 0 24 24" fill="none" xmlns="http://www.w3.org/2000/svg">
<mask id="mask0_51_81197" style="mask-type:alpha" maskUnits="userSpaceOnUse" x="0" y="0" width="24" height="24">
<rect width="24" height="24" fill="#D9D9D9"/>
</mask>
<g mask="url(#mask0_51_81197)">
<path d="M2.5957 18.6158V16.9695C2.5957 16.5053 2.71587 16.1063 2.9562 15.7723C3.19654 15.4384 3.51954 15.1716 3.9252 14.9718C4.7927 14.5588 5.65395 14.2295 6.50895 13.984C7.36412 13.7385 8.39304 13.6158 9.5957 13.6158C10.7982 13.6158 11.827 13.7385 12.6822 13.984C13.5374 14.2295 14.3986 14.5588 15.266 14.9718C15.6716 15.1716 15.9946 15.4384 16.235 15.7723C16.4755 16.1063 16.5957 16.5053 16.5957 16.9695V18.6158H2.5957ZM18.5957 18.6158V16.9233C18.5957 16.3438 18.4784 15.7968 18.2437 15.2823C18.0092 14.7678 17.6765 14.3263 17.2457 13.958C17.7367 14.058 18.2098 14.1968 18.665 14.3743C19.12 14.5519 19.57 14.7516 20.015 14.9733C20.4483 15.1913 20.788 15.4702 21.0342 15.81C21.2802 16.15 21.4032 16.5211 21.4032 16.9233V18.6158H18.5957ZM9.5957 11.3848C8.7707 11.3848 8.06445 11.091 7.47695 10.5035C6.88945 9.91602 6.5957 9.20977 6.5957 8.38477C6.5957 7.55977 6.88945 6.85352 7.47695 6.26602C8.06445 5.67852 8.7707 5.38477 9.5957 5.38477C10.4207 5.38477 11.127 5.67852 11.7145 6.26602C12.302 6.85352 12.5957 7.55977 12.5957 8.38477C12.5957 9.20977 12.302 9.91602 11.7145 10.5035C11.127 11.091 10.4207 11.3848 9.5957 11.3848ZM16.865 8.38477C16.865 9.20977 16.5712 9.91602 15.9837 10.5035C15.3962 11.091 14.69 11.3848 13.865 11.3848C13.8226 11.3848 13.7687 11.38 13.7032 11.3705C13.6379 11.3608 13.584 11.3503 13.5417 11.3388C13.8805 10.9238 14.1409 10.4634 14.3227 9.95777C14.5047 9.4521 14.5957 8.92702 14.5957 8.38251C14.5957 7.83801 14.5005 7.31768 14.31 6.82151C14.1196 6.32535 13.8635 5.86185 13.5417 5.43102C13.5955 5.41185 13.6494 5.39935 13.7032 5.39352C13.757 5.38768 13.811 5.38477 13.865 5.38477C14.69 5.38477 15.3962 5.67852 15.9837 6.26602C16.5712 6.85352 16.865 7.55977 16.865 8.38477ZM3.5957 17.6158H15.5957V16.9695C15.5957 16.7348 15.537 16.5297 15.4197 16.354C15.3024 16.1785 15.0918 16.0106 14.788 15.8503C14.0418 15.4516 13.2552 15.1462 12.4282 14.934C11.6014 14.7218 10.6572 14.6158 9.5957 14.6158C8.53404 14.6158 7.58979 14.7218 6.76295 14.934C5.93595 15.1462 5.14937 15.4516 4.4032 15.8503C4.09937 16.0106 3.88879 16.1785 3.77145 16.354C3.65429 16.5297 3.5957 16.7348 3.5957 16.9695V17.6158ZM9.5957 10.3848C10.1457 10.3848 10.6165 10.1889 11.0082 9.79727C11.3999 9.4056 11.5957 8.93477 11.5957 8.38477C11.5957 7.83477 11.3999 7.36393 11.0082 6.97227C10.6165 6.5806 10.1457 6.38477 9.5957 6.38477C9.0457 6.38477 8.57487 6.5806 8.1832 6.97227C7.79154 7.36393 7.5957 7.83477 7.5957 8.38477C7.5957 8.93477 7.79154 9.4056 8.1832 9.79727C8.57487 10.1889 9.0457 10.3848 9.5957 10.3848Z" fill="#28303B"/>
</g>
</svg>
