<svg width="27" height="23" viewBox="0 0 27 23" fill="none" xmlns="http://www.w3.org/2000/svg">
<mask id="mask0_581_27180" style="mask-type:alpha" maskUnits="userSpaceOnUse" x="2" y="-1" width="24" height="24">
<rect x="2" y="-1" width="24" height="24" fill="#C25458"/>
</mask>
<g mask="url(#mask0_581_27180)">
<path d="M13.9615 12C13.6935 12 13.4598 11.9003 13.2605 11.701C13.0612 11.5017 12.9615 11.268 12.9615 11C12.9615 10.732 13.0612 10.4983 13.2605 10.299C13.4598 10.0997 13.6935 10 13.9615 10C14.2295 10 14.4632 10.0997 14.6625 10.299C14.8618 10.4983 14.9615 10.732 14.9615 11C14.9615 11.268 14.8618 11.5017 14.6625 11.701C14.4632 11.9003 14.2295 12 13.9615 12ZM13.9615 19C11.9268 19 10.1557 18.3337 8.64801 17.001C7.14035 15.6683 6.26793 14.0013 6.03076 12H7.04226C7.3141 13.7205 8.10035 15.1507 9.40101 16.2905C10.7017 17.4302 12.2218 18 13.9615 18C15.9115 18 17.5657 17.3208 18.924 15.9625C20.2823 14.6042 20.9615 12.95 20.9615 11C20.9615 9.05 20.2823 7.39583 18.924 6.0375C17.5657 4.67917 15.9115 4 13.9615 4C12.9268 4 11.9544 4.21858 11.0443 4.65575C10.1339 5.09292 9.33068 5.69483 8.63451 6.4615H11.1155V7.4615H6.96151V3.30775H7.96151V5.69625C8.73468 4.84742 9.64076 4.18583 10.6798 3.7115C11.7189 3.23717 12.8128 3 13.9615 3C15.0715 3 16.1112 3.20867 17.0805 3.626C18.0498 4.04333 18.897 4.6145 19.622 5.3395C20.347 6.0645 20.9182 6.91158 21.3355 7.88075C21.7528 8.84975 21.9615 9.88917 21.9615 10.999C21.9615 12.1087 21.7528 13.1484 21.3355 14.1183C20.9182 15.0881 20.347 15.9355 19.622 16.6605C18.897 17.3855 18.0498 17.9567 17.0805 18.374C16.1112 18.7913 15.0715 19 13.9615 19Z" fill="#C25458"/>
</g>
</svg>
